<svg width="40" height="26" viewBox="0 0 40 26" fill="none" xmlns="http://www.w3.org/2000/svg">
<path d="M35.1489 14.9787L40 11.234L31.4894 0L26.6383 3.74468L26.8085 3.91489H17.2766C16.5957 3.91489 15.0638 4.08511 14.2128 5.2766L12.766 4.59575L13.3617 3.74468L8.51064 0L0 11.234L4.85106 14.9787L5.70213 13.7021L6.89362 14.5532L6.7234 14.8085C6.35315 15.3171 6.19905 15.9515 6.29471 16.5733C6.39037 17.1951 6.72803 17.7538 7.23404 18.1277C7.49308 18.3031 7.78521 18.4238 8.09253 18.4823C8.39985 18.5408 8.71589 18.536 9.02128 18.4681C8.85106 19.3192 9.19149 20.3404 9.87234 20.9362C10.1721 21.1625 10.5229 21.3119 10.8938 21.3712C11.2647 21.4306 11.6445 21.3981 12 21.2766V21.8723C12.0467 22.2934 12.2089 22.6933 12.4686 23.028C12.7283 23.3626 13.0755 23.6189 13.4718 23.7686C13.8681 23.9183 14.298 23.9556 14.7142 23.8763C15.1303 23.7969 15.5164 23.6041 15.8298 23.3191C15.9302 23.8523 16.2159 24.3327 16.6365 24.6754C17.057 25.018 17.5853 25.2009 18.1277 25.1915C18.5532 25.1915 18.9787 25.0213 19.4043 24.766L19.8298 25.1064C20.0842 25.3031 20.3759 25.4463 20.6871 25.5273C20.9984 25.6084 21.3229 25.6255 21.6409 25.5778C21.959 25.5301 22.2641 25.4185 22.5379 25.2497C22.8117 25.0809 23.0485 24.8585 23.234 24.5957C23.4894 24.0851 23.5745 23.5745 23.5745 23.0638C24.0851 23.4043 24.5106 23.5745 25.0213 23.5745C25.7872 23.5745 26.4681 23.234 26.9787 22.5532C27.3192 22.0426 27.4043 21.4468 27.3191 20.8511C27.6596 21.0213 27.9149 21.0213 28.1702 21.0213C28.5114 21.0272 28.8496 20.9571 29.1602 20.816C29.4709 20.6749 29.7462 20.4664 29.9663 20.2056C30.1863 19.9448 30.3455 19.6383 30.4323 19.3083C30.5191 18.9783 30.5313 18.6332 30.4681 18.2979L31.1489 18.383C31.4901 18.3889 31.8283 18.3188 32.1389 18.1777C32.4496 18.0366 32.725 17.8281 32.945 17.5673C33.165 17.3065 33.3242 17 33.411 16.67C33.4978 16.34 33.51 15.9949 33.4468 15.6596C33.4468 15.1489 33.1915 14.7234 32.766 14.383L34.0426 13.5319L35.1489 14.9787ZM31.3191 1.19149L38.8085 11.0638L35.3191 13.7872L27.8298 3.91489L31.234 1.19149H31.3191ZM4.68085 13.7872L1.19149 11.0638L8.68085 1.19149L12.1702 3.82979L4.68085 13.7872ZM7.74468 17.4468C7.40426 17.1915 7.14894 16.8511 7.14894 16.4255C7.06383 16 7.14894 15.5745 7.40426 15.234L8.25532 14.2128C8.51064 13.7872 8.93617 13.5319 9.44681 13.5319C9.80278 13.5294 10.1472 13.6583 10.4141 13.8938C10.681 14.1293 10.8517 14.455 10.8936 14.8085C10.8936 15.234 10.8936 15.6596 10.6383 16L10.5532 16.0851L9.78723 17.1915C9.2766 17.7872 8.34043 17.8723 7.74468 17.4468ZM10.4681 20.2553C9.78723 19.7447 9.61702 18.8085 10.1277 18.0426L10.4681 17.617L11.3191 16.5957L12.3404 15.0638C12.5957 14.7234 13.1064 14.4681 13.617 14.4681C13.9574 14.4681 14.2128 14.4681 14.4681 14.7234C15.1489 15.234 15.3191 16.1702 14.8085 16.8511L14.2128 17.7021L12.5106 19.9149C12.0851 20.5106 11.0638 20.766 10.4681 20.2553ZM13.3617 22.8085C13.1064 22.4681 12.8511 22.1277 12.8511 21.7021C12.766 21.3617 12.8511 20.8511 13.1064 20.5957L14.9787 18.0426L15.4894 17.3617L16.4255 16C16.766 15.5745 17.2766 15.3191 17.7021 15.3191C17.8922 15.3076 18.0827 15.3338 18.2626 15.396C18.4426 15.4583 18.6085 15.5554 18.7508 15.682C18.8931 15.8085 19.0091 15.9618 19.092 16.1332C19.1749 16.3046 19.2232 16.4907 19.234 16.6809C19.234 17.0213 19.1489 17.5319 18.8936 17.7872L17.7021 19.4043L16.2553 21.4468L15.5745 22.383C15.0638 23.0638 14.0426 23.234 13.3617 22.7234V22.8085ZM17.1915 24.0851C16.5957 23.5745 16.4255 22.6383 16.9362 21.9574L18.383 19.9149C18.7234 19.5745 19.1489 19.3192 19.5745 19.3192C19.9149 19.3192 20.2553 19.4043 20.4255 19.5745C21.1064 20.0851 21.2766 21.1064 20.766 21.7872L19.3192 23.7447C18.8936 24.3404 17.8723 24.5957 17.1915 24.0851ZM22.4681 24.0851C22.2128 24.4255 21.8723 24.5957 21.5319 24.6809C21.1064 24.6809 20.6809 24.6809 20.3404 24.4255L20.0851 24.1702L21.4468 22.2979C21.5319 22.1277 21.7021 21.9574 21.7021 21.7021L22.383 22.2128C22.8085 22.7234 22.8936 23.4894 22.4681 24.0851ZM32.4255 16.9362C31.9149 17.617 30.9787 17.7872 30.2128 17.2766L27.4894 15.3191L26.5532 14.5532L25.3617 13.7021L24.8511 14.4681L27.0638 16L29.0213 17.4468C29.7021 17.9574 29.8723 18.8936 29.4468 19.5745C28.9362 20.2553 28 20.4255 27.3191 19.9149L25.0213 18.2979L23.1489 16.9362L22.6383 17.617L25.8723 19.9149C26.5532 20.4255 26.7234 21.4468 26.2979 22.1277C25.7872 22.8085 24.8511 22.9787 24.0851 22.383L22.9787 21.5319C22.8455 21.4332 22.703 21.3477 22.5532 21.2766L21.8723 20.766C21.8723 20.0851 21.5319 19.4043 21.0213 18.8936C20.5106 18.6383 20 18.4681 19.4043 18.5532L19.5745 18.2979C19.7712 18.0434 19.9144 17.7518 19.9954 17.4405C20.0765 17.1293 20.0936 16.8048 20.0459 16.4867C19.9982 16.1686 19.8866 15.8635 19.7178 15.5897C19.549 15.3159 19.3266 15.0791 19.0638 14.8936C18.1277 14.2128 16.5957 14.4681 15.8298 15.4043C15.7447 14.8936 15.4043 14.383 14.9787 14.0426C13.9574 13.3617 12.4255 13.5319 11.6596 14.5532C11.5745 13.9574 11.234 13.5319 10.8085 13.1915C9.78723 12.4255 8.25532 12.6809 7.48936 13.7021L7.40426 13.8723L6.29787 13.0213L12.2553 5.2766L13.617 5.95745L12.766 7.14894C12.5692 7.40338 12.426 7.69502 12.345 8.00629C12.264 8.31755 12.2468 8.642 12.2945 8.96008C12.3422 9.27816 12.4538 9.58329 12.6226 9.85708C12.7914 10.1309 13.0139 10.3677 13.2766 10.5532C13.7872 10.8936 14.383 10.9787 14.9787 10.8936C15.6596 10.8936 16.1702 10.4681 16.5957 9.95745L17.8723 8.25532L20 8.17021C20.2553 9.87234 21.8723 11.3191 23.4894 11.3191H27.234L32 14.7234C32.3404 15.0638 32.5957 15.4043 32.6809 15.8298C32.6809 16.1702 32.6809 16.6809 32.4255 16.9362ZM32.0851 13.8723L27.4894 10.4681H23.5745C22.2979 10.4681 21.0213 9.10638 20.8511 7.74468V7.31915H17.4468L16 9.44681C15.7447 9.78723 15.4043 10.0426 14.9787 10.0426C14.7884 10.0792 14.5927 10.0772 14.4032 10.0368C14.2137 9.99636 14.0342 9.91825 13.8754 9.80712C13.7167 9.69599 13.5819 9.5541 13.479 9.38986C13.3761 9.22563 13.3073 9.04241 13.2766 8.85106C13.2766 8.42553 13.2766 8 13.5319 7.65957L14.8936 5.78723C15.4894 4.85106 16.8511 4.76596 17.2766 4.76596H27.4894L33.4468 12.766L32.0851 13.8723Z" fill="white"/>
</svg>
