<svg width="30" height="26" viewBox="0 0 30 26" fill="none" xmlns="http://www.w3.org/2000/svg">
<path d="M2.86 0C2.10148 0 1.37403 0.301321 0.837675 0.837675C0.301321 1.37403 0 2.10148 0 2.86V23.4867C0.0216469 24.1464 0.293392 24.7731 0.760124 25.2399C1.22686 25.7066 1.85363 25.9784 2.51333 26H26.9533C27.6278 25.9775 28.267 25.6937 28.736 25.2085C29.205 24.7233 29.467 24.0748 29.4667 23.4V6.93333C29.467 6.25853 29.205 5.61001 28.736 5.12483C28.267 4.63965 27.6278 4.35583 26.9533 4.33333H25.22V0.693333C25.22 0.346667 24.7867 0 24.44 0H2.86ZM2.86 1.47333H23.66V4.33333H2.86C1.99333 4.33333 1.47333 3.72667 1.47333 2.86C1.47333 2.08 2.08 1.47333 2.86 1.47333ZM1.47333 5.37333C1.82 5.63333 2.34 5.80667 2.86 5.80667H26.9533C27.56 5.80667 27.9933 6.24 27.9933 6.84667V11.18H17.5933C17.3582 11.1797 17.1255 11.2272 16.9094 11.3197C16.6932 11.4122 16.4981 11.5477 16.336 11.7179C16.1739 11.8882 16.048 12.0896 15.9662 12.31C15.8844 12.5304 15.8482 12.7652 15.86 13V17.3333C15.86 18.2867 16.64 19.0667 17.5933 19.0667H27.9933V23.4C27.9933 24.0933 27.56 24.5267 26.9533 24.5267H2.51333C1.90667 24.5267 1.47333 24.0933 1.47333 23.4867V5.37333ZM17.5933 12.6533H27.9933V17.68H17.5933C17.5014 17.68 17.4132 17.6435 17.3482 17.5785C17.2832 17.5135 17.2467 17.4253 17.2467 17.3333V13C17.2467 12.8267 17.42 12.6533 17.5933 12.6533ZM21.2333 13.6933C20.3667 13.6933 19.76 14.3867 19.76 15.1667C19.76 15.4581 19.8464 15.7429 20.0083 15.9852C20.1702 16.2275 20.4003 16.4163 20.6695 16.5278C20.9387 16.6394 21.235 16.6685 21.5208 16.6117C21.8066 16.5548 22.0691 16.4145 22.2751 16.2085C22.4812 16.0024 22.6215 15.7399 22.6784 15.4541C22.7352 15.1683 22.706 14.8721 22.5945 14.6028C22.483 14.3336 22.2942 14.1035 22.0519 13.9416C21.8096 13.7797 21.5247 13.6933 21.2333 13.6933Z" fill="white"/>
</svg>
