<svg width="216" height="72" viewBox="0 0 216 72" fill="none" xmlns="http://www.w3.org/2000/svg">
<path d="M216 45.4373C215.673 45.5479 215.34 45.6383 215.002 45.708C214.473 45.7802 214.281 45.4795 214.292 44.9742C214.32 44.2613 214.272 43.5474 214.147 42.8448C213.937 43.1095 213.714 43.374 213.51 43.6447C213.174 44.09 212.86 44.0839 212.535 43.6447C212.329 43.3422 212.058 43.0895 211.741 42.9049V44.878C211.741 45.5336 211.531 45.7321 210.9 45.7321C210.268 45.7321 210.064 45.4614 210.076 44.8599C210.106 43.5847 210.076 42.3094 210.076 41.0342C210.076 40.7213 210.201 40.2221 210.4 40.1438C210.632 40.0359 210.894 40.0116 211.143 40.0753C211.39 40.1389 211.608 40.2864 211.759 40.4928C212.157 41.0342 212.535 41.5816 212.963 42.1951C213.383 41.5935 213.739 41.0703 214.13 40.565C214.229 40.4248 214.358 40.3076 214.506 40.2213C214.655 40.1349 214.82 40.0814 214.991 40.0643C215.162 40.0472 215.335 40.0669 215.497 40.1221C215.66 40.1774 215.809 40.2669 215.934 40.3844L216 45.4373Z" fill="white"/>
<path d="M0.000988861 35.5898C0.0123604 28.5076 2.13307 21.5893 6.09261 15.7174C10.0522 9.84542 15.6711 5.28601 22.2325 2.62071C28.7941 -0.0445994 36.0009 -0.694995 42.9336 0.752483C49.8662 2.19997 56.2106 5.6797 61.1575 10.7479C66.1044 15.816 69.4295 22.2428 70.7086 29.2086C71.9879 36.1742 71.1631 43.3631 68.3397 49.8582C65.5162 56.3532 60.8221 61.86 54.856 65.6763C48.8899 69.4925 41.9223 71.4451 34.8419 71.2848C15.5387 70.8698 -0.14338 54.8629 0.000988861 35.5898ZM68.576 35.6318C68.5737 29.1248 66.6427 22.7644 63.027 17.3543C59.4113 11.9442 54.2733 7.72706 48.2619 5.23581C42.2506 2.74456 35.6358 2.09092 29.2532 3.35749C22.8705 4.62405 17.0064 7.75398 12.4018 12.3519C7.7973 16.9497 4.65881 22.8092 3.38294 29.19C2.10705 35.5707 2.75102 42.1865 5.23349 48.2014C7.71596 54.2164 11.9256 59.3607 17.3304 62.9842C22.7352 66.6077 29.0927 68.5481 35.5998 68.5599C44.3359 68.5552 52.7135 65.086 58.8952 58.9132C65.077 52.7404 68.5585 44.3679 68.576 35.6318Z" fill="white"/>
<path d="M117.172 53.7496C118.976 55.8972 121.046 57.4972 123.788 58.1529C127.122 58.9134 130.563 59.0825 133.954 58.6522C135.867 58.4417 136.517 58.5318 136.397 60.8116V62.111C136.397 63.2178 135.94 63.8313 134.839 63.9156C132.011 64.0539 129.179 64.2164 126.358 64.096C124.465 63.9837 122.593 63.6465 120.782 63.0915C117.918 62.2554 115.644 60.4387 113.689 58.213C113.039 57.4731 112.311 56.7934 111.686 56.0415C111.489 55.755 111.215 55.53 110.896 55.3926C110.576 55.2553 110.224 55.2112 109.882 55.2655C109.455 55.2928 109.026 55.2928 108.6 55.2655C108.6 55.6144 108.552 55.8671 108.552 56.1739V62.1892C108.552 63.5606 108.046 64.0419 106.669 64.0479C105.803 64.0479 104.937 64.0479 104.071 64.0479C102.897 64.0479 102.356 63.4464 102.356 62.2974C102.356 54.8144 102.356 47.3332 102.356 39.8542C102.356 38.6511 102.891 38.1338 104.077 38.1338C106.862 38.1338 109.653 38.0796 112.438 38.1699C113.734 38.2221 115.019 38.424 116.269 38.7714C117.761 39.1413 119.09 39.9875 120.056 41.1818C121.022 42.376 121.573 43.853 121.623 45.3883C121.728 46.4857 121.71 47.5914 121.569 48.6847C121.402 49.6123 121.031 50.4914 120.484 51.2589C119.937 52.0264 119.228 52.6633 118.405 53.1241C118.008 53.2925 117.605 53.503 117.172 53.7496ZM110.681 50.399V50.357C111.283 50.357 111.932 50.399 112.552 50.357C114.555 50.1945 115.878 48.9855 116.011 47.241C116.144 45.3883 115.085 43.9988 113.003 43.6318C111.648 43.468 110.283 43.4097 108.919 43.4574C108.78 43.4574 108.528 43.8363 108.528 44.0589C108.492 45.9778 108.528 47.9027 108.528 49.8216C108.528 50.2487 108.654 50.4231 109.099 50.4231C109.544 50.4231 110.164 50.399 110.681 50.399Z" fill="white"/>
<path d="M95.4476 50.2956C96.9726 50.8326 98.2537 51.9002 99.0568 53.3033C101.355 57.514 99.1831 62.3263 94.413 63.4452C92.8173 63.7794 91.1944 63.9667 89.5646 64.0046C87.1886 64.0948 84.8125 64.0046 82.4304 64.0046C80.9566 64.0046 80.4333 63.4872 80.4333 62.0135V40.0815C80.4333 38.5777 80.9326 38.0664 82.4064 38.0844C85.2877 38.1206 88.1811 38.0844 91.0444 38.2829C92.5199 38.4406 93.9624 38.824 95.3213 39.4199C96.2032 39.7626 96.9687 40.35 97.5282 41.113C98.0876 41.8759 98.4177 42.7827 98.4793 43.7269C98.6899 45.6277 98.4793 47.4443 97.1379 48.9301C96.6116 49.4294 96.0464 49.886 95.4476 50.2956ZM86.6532 58.9878C87.9345 58.9878 89.1315 59.0359 90.3225 58.9878C91.0398 58.9411 91.7479 58.7996 92.4279 58.5667C92.9573 58.4242 93.4191 58.0992 93.7319 57.6489C94.0445 57.1986 94.1878 56.6522 94.1362 56.1065C94.1752 55.5356 94.0131 54.9691 93.678 54.5054C93.3428 54.0417 92.8558 53.7101 92.3016 53.568C90.4609 52.9664 88.566 53.2853 86.6532 53.2251V58.9878ZM86.6231 43.017V48.3045C86.6539 48.4026 86.7094 48.4911 86.7841 48.5617C86.8589 48.6322 86.9505 48.6824 87.0501 48.7076C88.0822 48.7418 89.1154 48.7036 90.1421 48.5932C90.7982 48.5341 91.4079 48.2291 91.8485 47.7393C92.2892 47.2495 92.5284 46.6113 92.5182 45.9525C92.552 45.6235 92.5192 45.2911 92.4217 44.9751C92.3241 44.659 92.1639 44.366 91.9506 44.1132C91.7371 43.8606 91.475 43.6535 91.1798 43.5044C90.8845 43.3554 90.5624 43.2673 90.2323 43.2456C89.0343 43.1033 87.8295 43.027 86.6231 43.017Z" fill="white"/>
<path d="M95.3571 21.1153C97.4445 21.9513 98.9664 23.2386 99.5257 25.326C100.512 29.0855 99.4717 33.4046 93.745 34.4031C91.9845 34.6679 90.2076 34.8087 88.4274 34.8242C86.3642 34.8904 84.2949 34.8242 82.2316 34.8242C80.9684 34.8242 80.427 34.2948 80.427 33.0196C80.427 25.5686 80.427 18.1155 80.427 10.6605C80.427 9.45745 81.0286 8.85592 82.2015 8.90404C85.0829 8.90404 87.9702 8.90404 90.8456 9.06044C93.1134 9.19278 95.2729 9.78229 97.0354 11.4245C99.2371 13.4697 99.1949 19.1843 95.7601 20.8265C95.6191 20.9131 95.4845 21.0095 95.3571 21.1153ZM86.6228 30.0119C88.4876 29.8675 90.232 29.8495 91.9584 29.5728C92.5863 29.5161 93.1669 29.2153 93.5753 28.7349C93.9836 28.2545 94.1872 27.6331 94.142 27.0042C94.142 25.5365 93.4683 24.5981 91.9343 24.3395C90.2927 24.1547 88.6417 24.0663 86.9898 24.0748C86.8695 24.0748 86.6348 24.3334 86.6288 24.4717C86.6228 26.2282 86.6228 27.9787 86.6228 30.0119ZM86.6228 13.9028V19.1843C86.6228 19.3227 86.8694 19.5813 86.9958 19.5753C88.1896 19.5982 89.3831 19.5177 90.5629 19.3347C91.9464 19.046 92.584 17.9632 92.5178 16.5376C92.5295 15.9386 92.3138 15.3574 91.9143 14.911C91.5148 14.4646 90.9609 14.1861 90.3644 14.1314C89.1733 13.9148 87.9462 13.9449 86.6228 13.8727V13.9028Z" fill="white"/>
<path d="M145.283 47.2406V48.131V62.1286C145.283 63.5303 144.832 63.9874 143.436 63.9994C142.546 63.9994 141.632 63.9994 140.765 63.9994C139.562 63.9994 139.093 63.5363 139.093 62.3391C139.093 54.8079 139.093 47.2807 139.093 39.7576C139.093 38.6026 139.634 38.1875 140.777 38.0672C141.845 37.9103 142.936 38.0398 143.938 38.4424C144.94 38.8451 145.817 39.5065 146.479 40.359C148.315 42.4885 150.426 44.3713 152.405 46.3745C152.578 46.5749 152.732 46.7902 152.868 47.0181L153.072 46.8978C153.072 46.7052 153.127 46.5068 153.127 46.2962C153.127 44.2029 153.127 42.1155 153.127 40.0223C153.127 38.5004 153.542 38.0852 155.04 38.0852H157.205C158.967 38.0852 159.328 38.4462 159.328 40.1786V55.614V62.1768C159.328 63.5062 158.842 63.9814 157.524 63.9814C156.705 63.9814 155.888 63.9814 155.07 63.9814C153.62 63.9814 153.162 63.5303 153.157 62.0925C153.157 59.8789 153.157 57.6653 153.157 55.4757C153.158 55.176 153.056 54.885 152.868 54.6516C150.462 52.2454 148.056 49.8393 145.619 47.4331C145.523 47.367 145.451 47.3429 145.283 47.2406Z" fill="white"/>
<path d="M125.018 21.8447V10.9509C125.018 9.40502 125.499 8.92379 127.051 8.94184C129.547 8.94184 132.056 8.86965 134.54 9.09223C137.085 9.35544 139.477 10.435 141.359 12.1698C143.239 13.9044 144.508 16.2011 144.977 18.7168C145.579 22.0733 145.524 25.3998 143.882 28.4857C142.996 30.2599 141.658 31.7691 140.004 32.8612C138.349 33.9532 136.436 34.5894 134.456 34.7057C131.857 34.9282 129.223 34.8259 126.606 34.8319C125.548 34.8319 125.03 34.2303 125.024 33.0273C125.024 30.7655 125.024 28.5098 125.024 26.248L125.018 21.8447ZM131.291 29.4602H133.097C134.334 29.4378 135.532 29.0233 136.52 28.2764C137.506 27.5294 138.23 26.4885 138.588 25.3036C139.333 23.1222 139.311 20.7522 138.528 18.5844C138.056 17.1198 137.055 15.884 135.72 15.1195C134.384 14.355 132.812 14.117 131.31 14.4519L131.291 29.4602Z" fill="white"/>
<path d="M185.568 24.6587H177.037V25.4467V33.1704C177.037 34.3735 176.599 34.8246 175.395 34.8367C174.433 34.8367 173.471 34.8367 172.514 34.8367C171.354 34.8367 170.877 34.3615 170.872 33.2245V10.5647C170.872 9.41578 171.359 8.94057 172.496 8.93455H175.455C176.569 8.93455 177.037 9.40976 177.037 10.5166V18.5952C177.037 19.1968 177.206 19.3351 177.771 19.323H184.834C185.435 19.323 185.598 19.1185 185.591 18.541C185.561 15.9425 185.591 13.3438 185.591 10.7211C185.591 9.28344 185.976 8.91649 187.439 8.91649H190.181C190.393 8.8929 190.608 8.91702 190.809 8.98709C191.01 9.05716 191.192 9.17141 191.344 9.32142C191.494 9.47144 191.61 9.65342 191.682 9.854C191.753 10.0546 191.779 10.2687 191.757 10.4805V33.2065C191.788 33.4219 191.769 33.6416 191.702 33.8486C191.634 34.0555 191.521 34.2443 191.37 34.4006C191.218 34.5568 191.032 34.6762 190.827 34.7497C190.623 34.8232 190.403 34.8488 190.187 34.8246C189.129 34.8547 188.069 34.8547 187.017 34.8246C186.816 34.8482 186.614 34.8252 186.424 34.7575C186.234 34.6898 186.062 34.5792 185.922 34.4342C185.781 34.2894 185.676 34.114 185.615 33.922C185.554 33.7299 185.538 33.5262 185.568 33.3268C185.568 30.7583 185.568 28.1837 185.568 25.6091V24.6587Z" fill="white"/>
<path d="M147.931 21.827C147.931 18.2179 147.931 14.6086 147.931 10.9994C147.931 9.3993 148.394 8.91807 149.976 8.93612C152.449 8.93612 154.939 8.85791 157.393 9.07447C159.974 9.32989 162.4 10.4231 164.301 12.1872C166.202 13.9512 167.473 16.289 167.92 18.8434C168.522 22.2842 168.395 25.6768 166.621 28.7868C165.703 30.4914 164.362 31.9312 162.728 32.9678C161.092 34.0043 159.218 34.6029 157.286 34.7059C154.729 34.9105 152.148 34.8202 149.58 34.8262C148.491 34.8262 147.937 34.2246 147.931 33.0818C147.931 30.3388 147.931 27.5958 147.931 24.8527V21.827ZM154.181 14.4342V29.4725C154.843 29.4725 155.468 29.5147 156.082 29.4725C158.597 29.262 160.449 28.059 161.352 25.6528C161.831 24.426 162.061 23.116 162.029 21.7993C161.997 20.4825 161.703 19.1852 161.165 17.9833C160.591 16.6748 159.582 15.6058 158.309 14.9586C157.035 14.3114 155.576 14.126 154.181 14.4342Z" fill="white"/>
<path d="M162.935 51.0689V40.0789C162.935 38.5751 163.422 38.0878 164.908 38.0878C167.025 38.0878 169.118 38.0517 171.254 38.0878C174.255 38.1473 177.129 39.317 179.319 41.3712C181.509 43.4254 182.86 46.2182 183.11 49.2102C183.441 51.6249 183.179 54.084 182.346 56.3744C180.5 60.9521 177.004 63.4485 172.12 63.8756C169.66 64.0862 167.175 63.9899 164.703 63.9959C163.464 63.9959 162.898 63.3944 162.898 62.1552C162.919 58.4578 162.931 54.7624 162.935 51.0689ZM169.137 58.6302H170.971C172.229 58.6035 173.446 58.1761 174.444 57.4103C175.444 56.6443 176.171 55.5796 176.524 54.3713C176.962 52.9186 177.093 51.3902 176.908 49.8839C176.589 45.9078 173.9 43.4715 169.991 43.4534C169.274 43.4534 169.118 43.682 169.118 44.3558C169.148 48.8252 169.118 53.2945 169.118 57.764L169.137 58.6302Z" fill="white"/>
<path d="M102.178 18.716C102.178 16.0271 102.178 13.3323 102.178 10.6374C102.178 9.43434 102.696 8.94108 103.899 8.93506H106.636C107.839 8.93506 108.356 9.4584 108.362 10.6494V25.1524C108.389 26.0844 108.578 27.0045 108.922 27.8714C109.385 29.0745 110.419 29.5437 111.683 29.5858C113.042 29.6339 114.227 29.2429 114.768 27.9375C115.148 27.0066 115.353 26.0133 115.37 25.0081C115.43 20.3222 115.37 15.6301 115.37 10.9442C115.37 9.35614 115.791 8.93506 117.373 8.93506H119.827C121.031 8.93506 121.566 9.47043 121.571 10.7036V16.0452C121.571 19.2875 121.608 22.5358 121.571 25.7841C121.552 26.9107 121.423 28.0328 121.187 29.1347C120.95 30.4972 120.307 31.7559 119.339 32.745C118.373 33.7341 117.13 34.4069 115.773 34.6748C113.175 35.3304 110.454 35.3304 107.857 34.6748C104.597 33.8627 102.636 31.5829 102.329 28.0158C102.118 25.5314 102.196 23.023 102.148 20.5267C102.166 19.9191 102.178 19.3175 102.178 18.716Z" fill="white"/>
<path d="M194.466 37.6685C196.282 37.7257 198.072 38.1152 199.747 38.8174C200.838 39.2916 201.788 40.039 202.506 40.9872C203.223 41.9356 203.684 43.0529 203.844 44.2312C204.061 45.4764 203.705 45.9817 202.478 46.2164C201.419 46.4148 200.354 46.5832 199.284 46.7337C198.64 46.8238 198.268 46.5832 198.165 45.8614C197.762 43.0221 194.201 42.4747 192.535 43.5635C192.232 43.7561 191.983 44.0211 191.809 44.3346C191.635 44.6479 191.543 44.9999 191.538 45.3584C191.535 45.7169 191.621 46.0705 191.789 46.3873C191.956 46.7042 192.2 46.9742 192.499 47.1728C193.332 47.6501 194.205 48.0528 195.109 48.3758C196.794 49.0676 198.557 49.5789 200.162 50.4331C203.555 52.2377 204.631 55.48 203.862 58.9207C203.659 59.9307 203.196 60.8703 202.519 61.6467C201.841 62.4231 200.973 63.0096 200 63.3481C196.926 64.5509 193.54 64.6948 190.375 63.7571C187.5 62.8969 185.809 60.8517 185.262 57.8981C185.064 56.8395 185.413 56.3582 186.466 56.1476C187.518 55.9371 188.493 55.7687 189.516 55.6183C190.538 55.4679 190.748 55.6905 190.922 56.6409C191.015 57.1185 191.23 57.5638 191.546 57.933C191.863 58.3022 192.27 58.5825 192.728 58.7463C193.829 59.197 195.055 59.2397 196.186 58.8667C196.645 58.7448 197.052 58.4794 197.349 58.1091C197.645 57.7389 197.816 57.2834 197.834 56.8094C197.908 56.3609 197.822 55.901 197.589 55.5104C197.356 55.1199 196.994 54.8236 196.565 54.6739C195.362 54.1566 194.093 53.7776 192.854 53.3324C191.837 52.9656 190.797 52.6648 189.816 52.2257C186.363 50.6737 185.149 48.1834 185.353 44.899C185.44 43.3355 186.03 41.842 187.034 40.6411C188.039 39.4401 189.405 38.5958 190.929 38.2339C192.097 37.9847 193.278 37.7959 194.466 37.6685Z" fill="white"/>
<path d="M206.967 30.2796H201.024C200.811 31.218 200.601 32.1504 200.392 33.0767C200.098 34.4182 199.568 34.8392 198.19 34.8392C197.204 34.8392 196.217 34.8392 195.237 34.8392C194.256 34.8392 193.739 34.2377 194.034 33.2331C196.211 25.6137 198.396 18.0042 200.591 10.4048C200.678 9.96396 200.927 9.57161 201.288 9.30458C201.65 9.03757 202.099 8.9151 202.546 8.96116H205.505C206.768 8.96116 207.309 9.35217 207.634 10.5613C209.595 17.3787 211.559 24.196 213.523 31.0135L214.125 33.0888C214.468 34.2918 214.076 34.8392 212.837 34.8452H209.878C209.356 34.898 208.832 34.7447 208.422 34.4177C208.01 34.0906 207.743 33.616 207.677 33.0948C207.466 32.2045 207.274 31.2902 207.075 30.4239C207.057 30.3819 207.015 30.3458 206.967 30.2796ZM204.091 17.13H203.905L201.932 26.0749H206.112C205.427 23.0432 204.759 20.0895 204.091 17.13Z" fill="white"/>
<path d="M134.745 56.1446H134.145C132.658 56.1446 132.249 55.8799 131.943 54.4301C131.936 54.2755 131.895 54.1242 131.822 53.9875C131.749 53.8509 131.647 53.7322 131.523 53.6405C131.398 53.5487 131.254 53.486 131.101 53.4571C130.95 53.4283 130.793 53.4339 130.643 53.4737C129.587 53.5339 128.529 53.5339 127.473 53.4737C126.872 53.4737 126.577 53.6121 126.517 54.2256C126.481 54.5093 126.406 54.7866 126.294 55.0497C126.19 55.3753 125.985 55.6588 125.708 55.8583C125.43 56.0576 125.096 56.1623 124.755 56.1566C124.086 56.1566 123.413 56.1566 122.74 56.1566C121.603 56.1566 121.223 55.6573 121.536 54.5505C122.203 52.2466 122.89 49.9487 123.569 47.6508L125.88 39.8309C126.283 38.4775 126.811 38.0864 128.219 38.0864H130.306C131.54 38.0864 132.111 38.5014 132.454 39.6926C133.705 43.8952 134.953 48.106 136.195 52.3248C136.406 53.0346 136.623 53.7504 136.827 54.4662C137.164 55.6694 136.785 56.1446 135.57 56.1506L134.745 56.1446ZM129.332 44.0056H129.169C128.676 45.9064 128.177 47.8073 127.678 49.7382H130.757L129.332 44.0056Z" fill="white"/>
<path d="M208.228 41.5275V44.8299C208.228 45.4314 208.054 45.7382 207.369 45.7322C206.682 45.7261 206.58 45.3894 206.586 44.8299C206.586 43.7591 206.586 42.6824 206.586 41.5455C206.322 41.5455 206.117 41.4853 205.912 41.4853C205.407 41.4853 205.178 41.2447 205.185 40.7214C205.19 40.198 205.468 40.0718 205.919 40.0718H208.866C209.329 40.0718 209.6 40.2161 209.611 40.7154C209.624 41.2146 209.414 41.4853 208.896 41.4853C208.733 41.4853 208.529 41.5094 208.228 41.5275Z" fill="white"/>
<path d="M42.6513 52.7153C41.2653 52.5947 39.9295 52.1386 38.7594 51.3859C37.8236 50.7608 36.7236 50.4271 35.5983 50.4271C34.473 50.4271 33.3729 50.7608 32.4373 51.3859C31.1339 52.2223 29.6242 52.6807 28.0759 52.7105C26.5276 52.7402 25.0013 52.34 23.6668 51.5543C22.7104 51.043 22.4096 50.2551 22.8247 49.4851C23.2398 48.7151 24.0579 48.5406 25.0083 49.07C25.9273 49.6272 26.9867 49.9096 28.0611 49.884C29.1356 49.8584 30.1802 49.5259 31.0717 48.9256C32.4104 48.0464 33.9755 47.5744 35.577 47.567C37.1786 47.5595 38.7479 48.0168 40.0947 48.8835C42.2182 50.1347 44.3056 50.243 46.4289 48.9918C46.5877 48.8817 46.7676 48.8056 46.9572 48.7683C47.1469 48.731 47.3421 48.7333 47.5308 48.7751C47.7195 48.8169 47.8975 48.8973 48.0536 49.0112C48.2098 49.1251 48.3407 49.2701 48.438 49.4369C48.5329 49.6059 48.5927 49.7922 48.6136 49.9848C48.6347 50.1774 48.6165 50.3722 48.5603 50.5577C48.5041 50.743 48.4111 50.9152 48.2867 51.0637C48.1623 51.2122 48.0091 51.3341 47.8366 51.422C46.271 52.3492 44.4688 52.7987 42.6513 52.7153Z" fill="white"/>
<path d="M24.0632 27.0055C21.8336 27.0284 19.679 27.8138 17.9577 29.2312C16.9592 30.0312 16.1531 30.0914 15.5515 29.3996C14.95 28.7078 15.1425 27.8777 16.1832 27.0296C18.4881 25.1722 21.3642 24.1689 24.3243 24.1898C27.2843 24.2105 30.1462 25.2542 32.4246 27.1438C32.7042 27.3463 32.9229 27.6217 33.0566 27.9399C33.1901 28.2582 33.2338 28.607 33.1825 28.9484C32.8698 31.4267 32.5811 33.9111 32.2863 36.3895C32.2684 36.5758 32.2121 36.7566 32.1209 36.92C32.0297 37.0836 31.9055 37.2264 31.7563 37.3394C31.607 37.4525 31.4359 37.5334 31.2538 37.5769C31.0716 37.6206 30.8825 37.6258 30.6982 37.5925C30.5051 37.57 30.3189 37.5074 30.1513 37.4088C29.9839 37.31 29.8388 37.1774 29.7256 37.0194C29.6123 36.8615 29.5333 36.6814 29.4936 36.4911C29.4539 36.3008 29.4544 36.1044 29.4952 35.9143C29.7297 33.8871 29.9523 31.8539 30.235 29.8327C30.2899 29.5877 30.2604 29.3314 30.1511 29.1053C30.0419 28.8793 29.8596 28.6968 29.6335 28.5876C27.9779 27.5125 26.0368 26.9611 24.0632 27.0055Z" fill="white"/>
<path d="M47.0165 24.2027C50.0287 24.1756 52.9507 25.23 55.2515 27.1742C56.0937 27.866 56.2441 28.7442 55.6906 29.4179C55.3826 29.7033 54.9758 29.8579 54.556 29.849C54.1363 29.8399 53.7363 29.6681 53.4409 29.3698C51.833 27.9894 49.8233 27.1638 47.7093 27.0154C45.5954 26.867 43.49 27.4035 41.7049 28.5457C41.442 28.6774 41.2313 28.8939 41.1069 29.1603C40.9823 29.4267 40.9515 29.7273 41.0192 30.0135C41.2959 31.9624 41.5064 33.9234 41.723 35.8784C41.8313 36.8649 41.3621 37.5206 40.5199 37.6109C39.6777 37.701 39.1003 37.2319 38.9679 36.2393C38.6552 33.761 38.3665 31.2767 38.0657 28.7983C38.0252 28.4996 38.067 28.1953 38.1868 27.9186C38.3066 27.6419 38.4997 27.4032 38.7454 27.2284C41.0474 25.2555 43.9848 24.1809 47.0165 24.2027Z" fill="white"/>
<path d="M35.6542 44.9078C33.9278 44.9078 32.1954 44.9078 30.4629 44.9078C28.2613 44.9078 26.6431 43.6325 26.2522 41.6174C26.1593 41.1497 26.1821 40.6665 26.3184 40.2097C26.4123 39.93 26.6057 39.6945 26.8619 39.5482C27.1181 39.4017 27.4192 39.3546 27.7079 39.4157C28.011 39.4341 28.2987 39.5558 28.523 39.7605C28.7473 39.9651 28.8949 40.2404 28.941 40.5406C29.2839 41.9481 29.4944 42.1225 30.9322 42.1225H40.5566C41.8079 42.1225 42.1507 41.8219 42.3612 40.5827C42.4093 40.2169 42.6001 39.8851 42.892 39.6597C43.184 39.4343 43.5533 39.3336 43.9192 39.3796C44.277 39.4389 44.599 39.631 44.8211 39.9177C45.043 40.2044 45.1485 40.5644 45.1163 40.9255C45.0976 41.9061 44.7198 42.8457 44.0546 43.5663C43.3895 44.2869 42.483 44.7385 41.5071 44.8355C39.5641 44.9438 37.6152 44.8355 35.6662 44.8355L35.6542 44.9078Z" fill="white"/>
<path d="M24.2017 20.215C21.8855 20.2865 19.6087 20.8331 17.5125 21.821C17.0453 22.0412 16.5112 22.0736 16.0207 21.9113C15.8162 21.7756 15.6425 21.5983 15.5108 21.3911C15.3792 21.1838 15.2927 20.9511 15.2568 20.7083C15.2287 20.4299 15.2939 20.1502 15.442 19.9128C15.5899 19.6756 15.8126 19.494 16.0749 19.3969C17.8684 18.461 19.8132 17.8501 21.8195 17.5923C25.3468 17.1087 28.9377 17.7065 32.1179 19.3066C32.5691 19.5483 32.9316 19.9277 33.1526 20.3894C33.2525 20.6399 33.2622 20.9174 33.1799 21.1743C33.0975 21.4312 32.9284 21.6514 32.7013 21.797C32.4646 21.9626 32.1873 22.0606 31.8991 22.0808C31.6109 22.1009 31.3227 22.0423 31.0652 21.9113C29.6937 21.4181 28.3222 20.9068 26.9146 20.5338C26.0199 20.3574 25.1128 20.2508 24.2017 20.215Z" fill="white"/>
<path d="M46.7156 17.4606C49.583 17.4171 52.419 18.0607 54.9868 19.3374C55.4116 19.5749 55.7473 19.9444 55.9432 20.3901C56.0368 20.6422 56.0433 20.9185 55.9615 21.1747C55.8797 21.4309 55.7145 21.6524 55.4921 21.8037C55.2743 21.977 55.0098 22.0817 54.7323 22.1041C54.4549 22.1267 54.177 22.066 53.9341 21.9299C52.3876 21.1496 50.7231 20.6293 49.0075 20.3901C46.0286 20.0108 43.0038 20.5083 40.3033 21.8217C39.8891 22.0466 39.4033 22.1006 38.9498 21.9721C38.5106 21.716 38.1905 21.2964 38.0596 20.8051C38.011 20.5167 38.065 20.2203 38.2123 19.9676C38.3595 19.7148 38.5907 19.5216 38.8656 19.4215C40.7429 18.4557 42.7821 17.8439 44.881 17.6169C45.6209 17.5207 46.3187 17.4906 46.7156 17.4606Z" fill="white"/>
<path d="M35.6902 55.4209H40.8032C41.8439 55.4209 42.4395 55.9442 42.4395 56.8224C42.4395 57.7007 41.8379 58.2361 40.8093 58.2361C37.3765 58.2361 33.9397 58.2361 30.499 58.2361C29.4523 58.2361 28.8507 57.7308 28.8327 56.8646C28.8146 55.9983 29.4342 55.4269 30.499 55.4209H35.6902Z" fill="white"/>
<path d="M37.3613 14.813C37.3637 15.0404 37.3207 15.266 37.2348 15.4765C37.1489 15.6871 37.0218 15.8784 36.861 16.0392C36.7002 16.2 36.509 16.3271 36.2984 16.4129C36.0878 16.4988 35.8623 16.5419 35.6349 16.5394C35.1818 16.545 34.7451 16.3704 34.4207 16.054C34.0964 15.7375 33.9111 15.3052 33.9055 14.8522C33.8999 14.3991 34.0745 13.9623 34.391 13.6379C34.7074 13.3136 35.1397 13.1283 35.5927 13.1228C35.8202 13.1163 36.0467 13.1551 36.259 13.2368C36.4714 13.3186 36.6653 13.4415 36.8298 13.5987C36.9943 13.7559 37.126 13.9442 37.2173 14.1527C37.3084 14.3611 37.3574 14.5855 37.3613 14.813Z" fill="white"/>
</svg>
