<svg width="75" height="31" viewBox="0 0 75 31" fill="none" xmlns="http://www.w3.org/2000/svg">
<path d="M24.7596 0.722891H30.9942V30H24.7596V0.722891ZM51.0548 24.7591H43.9162V0.722891H37.6815V30.0904H55.4816L51.0548 24.7591ZM64.1571 14.0964L74.6393 0.722891H67.4099L57.6513 14.006V0.722891H51.3259V16.7168L57.6513 24.1265V14.6385L67.5007 30H75L64.1571 14.0964ZM17.7105 16.8976C16.5366 15.4519 14.6391 14.1868 12.1994 13.0121C11.8376 12.8313 11.3862 12.6506 10.8441 12.3795C7.86112 11.1145 6.32542 9.66868 6.32542 8.13253C6.32542 7.13855 6.68723 6.3253 7.50045 5.69277C8.22293 5.06025 9.21648 4.78916 10.4823 4.78916C11.4758 4.78916 12.3798 4.96989 13.1022 5.42169C13.8259 5.87349 14.4576 6.50602 14.8194 7.31927L18.5237 3.79519C17.5302 2.43976 16.3551 1.53615 15.0905 0.903614C13.8259 0.271085 12.289 0 10.4823 0C7.40971 0 4.97005 0.813253 3.07254 2.3494C1.17503 3.88555 0.180326 5.8735 0.180326 8.31325C0.180326 10.1205 0.632886 11.5663 1.62643 12.8313C2.62114 14.0964 4.42792 15.4519 6.95832 16.7168L9.1269 17.8012C11.9284 19.1566 13.3733 20.5121 13.3733 21.9578C13.3733 23.1325 12.9219 24.0362 12.1087 24.7591C11.2955 25.4819 10.1204 25.8434 8.58475 25.8434C7.40972 25.8434 6.23467 25.5723 5.33187 24.9398C4.33716 24.3072 3.61468 23.494 3.25286 22.4096L0 22.5L6.95832 30.7229C7.68079 30.8132 8.40326 30.9036 9.21648 30.9036C12.3798 30.9036 14.9102 30.0904 16.8077 28.4638C18.7052 26.8374 19.6092 24.6687 19.6092 21.8675C19.5184 19.9699 18.8855 18.3434 17.7105 16.8976Z" fill="#1B398F"/>
</svg>
