<svg width="155" height="31" viewBox="0 0 155 31" fill="none" xmlns="http://www.w3.org/2000/svg">
<path d="M6.15715 24.4502H9.63728C12.8497 24.4502 15.2591 23.7363 16.6868 22.2193C18.2038 20.7023 18.9176 18.3822 18.9176 15.1698C18.9176 11.9574 18.2038 9.63728 16.6868 8.1203C15.1698 6.60332 12.8497 5.88945 9.63728 5.88945H6.15715V24.4502ZM0 29.6257V0.713872H7.8526C10.9758 0.713872 13.3851 0.892341 15.1698 1.33851C16.9545 1.78468 18.5606 2.49856 19.8992 3.48013C21.6839 4.81865 23.0223 6.42485 23.9147 8.388C24.807 10.3512 25.2533 12.6712 25.2533 15.1698C25.2533 17.7576 24.807 19.9885 23.8255 22.0409C22.9332 24.004 21.5946 25.6994 19.8099 26.9487C18.4715 27.9303 17.0438 28.5549 15.4375 29.0011C13.8312 29.4473 11.422 29.6257 8.388 29.6257H0ZM30.6073 0.713872H36.7644V29.6257H30.6073V0.713872ZM55.8606 14.3667H70.9411C70.9411 14.5452 70.9411 14.7236 71.0304 14.9021V15.7945C71.0304 20.1669 69.7811 23.647 67.2825 26.324C64.784 29.0011 61.5715 30.3396 57.6453 30.3396C53.1835 30.3396 49.4356 28.9119 46.5802 26.0563C43.6355 23.2009 42.2078 19.5423 42.2078 15.1698C42.2078 10.7973 43.6355 7.13872 46.5802 4.28324C49.5249 1.42775 53.1835 0 57.6453 0C59.9653 0 62.1961 0.535404 64.1593 1.51698C66.1224 2.49856 67.9071 4.01554 69.4241 5.97868L65.2301 9.10188C64.2485 7.76336 63.0885 6.78179 61.9284 6.24638C60.7684 5.71098 59.4299 5.35404 57.9129 5.35404C55.0574 5.35404 52.7373 6.24638 51.0419 8.03107C49.3465 9.81575 48.4542 12.2251 48.4542 15.1698C48.4542 18.1145 49.3465 20.4346 51.0419 22.2193C52.7373 24.004 54.9682 24.8963 57.7344 24.8963C59.7869 24.8963 61.393 24.4502 62.6424 23.4686C63.8916 22.487 64.5163 21.2377 64.5163 19.7208V19.3638H60.1437L55.8606 14.3667ZM76.0275 0.713872H82.1846V29.6257H76.0275V0.713872ZM99.5852 5.97868V29.6257H93.4281V5.97868H86.2893V0.713872H109.312L107.349 5.97868H99.5852ZM123.142 0.713872H116.094L105.118 29.6257H111.721C111.721 29.6257 119.306 6.33562 119.484 5.35404C119.662 6.33562 123.5 18.5606 123.5 18.5606H118.146L127.337 29.5364H134.387L123.142 0.713872ZM137.421 29.6257V0.713872H143.578V24.3609H150.538L155 29.6257H137.421Z" fill="#1B398F"/>
</svg>
