<svg width="32" height="26" viewBox="0 0 32 26" fill="none" xmlns="http://www.w3.org/2000/svg">
<path fill-rule="evenodd" clip-rule="evenodd" d="M0.549053 0C0.403451 0.000479554 0.263814 0.0579058 0.160001 0.16C0.10917 0.21 0.068834 0.269647 0.0413591 0.335442C0.0138843 0.401237 -0.000176441 0.471856 1.67119e-06 0.543157C0.00199813 0.687225 0.0608051 0.824677 0.163629 0.925608C0.266452 1.02654 0.404972 1.08278 0.549053 1.0821H5.69936L11.0248 16.773C10.0404 17.0998 9.32882 18.0235 9.32882 19.0989C9.32882 20.4446 10.4421 21.5477 11.8088 21.5477H12.9996C12.658 22.0017 12.4732 22.5544 12.4732 23.1225C12.4732 24.5793 13.68 25.7776 15.1612 25.7776C16.6425 25.7776 17.8484 24.5793 17.8484 23.1216C17.8484 22.5539 17.664 22.0016 17.3229 21.5477H21.9957C21.6539 22.0016 21.4688 22.5543 21.4686 23.1225C21.4686 24.5793 22.6762 25.7776 24.1574 25.7776C25.6378 25.7776 26.8437 24.5793 26.8437 23.1216C26.8438 22.5539 26.6594 22.0016 26.3183 21.5477H27.5738C27.7181 21.5486 27.8568 21.4925 27.9598 21.3915C28.0628 21.2906 28.1217 21.153 28.1237 21.0088C28.1239 20.9375 28.1099 20.8669 28.0824 20.8011C28.0549 20.7353 28.0146 20.6756 27.9637 20.6256C27.8597 20.5233 27.7197 20.4659 27.5738 20.4656H11.8097C11.629 20.4683 11.4496 20.4349 11.2821 20.3673C11.1145 20.2997 10.9622 20.1993 10.834 20.0719C10.7058 19.9446 10.6043 19.7929 10.5356 19.6258C10.4668 19.4587 10.4322 19.2796 10.4337 19.0989C10.4337 18.3292 11.04 17.7288 11.8097 17.7288H27.5738C27.6275 17.7279 27.6809 17.7194 27.7322 17.7035C27.7452 17.6983 27.7582 17.6927 27.7709 17.6867C27.8232 17.6664 27.8723 17.6386 27.9166 17.6042C27.9589 17.5705 27.9961 17.5308 28.0269 17.4863C28.0489 17.4539 28.0672 17.4191 28.0816 17.3827L28.0943 17.3574L31.9721 5.92841C31.9995 5.84728 32.0068 5.76078 31.9936 5.6762C31.9804 5.59162 31.9471 5.51147 31.8964 5.44251C31.8448 5.3727 31.7775 5.31598 31.7 5.27692C31.6225 5.23787 31.5368 5.21757 31.45 5.21767H8.26777L6.62567 0.37221C6.62171 0.364218 6.6175 0.356355 6.61304 0.348631C6.57925 0.259047 6.52159 0.180418 6.4463 0.121263C6.37879 0.0672436 6.29943 0.0300135 6.21473 0.0126316L6.19788 0.00926314C6.16565 0.00337384 6.13297 0.000274656 6.1002 0L0.549053 0ZM8.63493 6.29893H30.6846L27.1747 16.6467H12.1431L12.0303 16.3124L8.63493 6.29893ZM15.12 21.5477H15.2017C15.614 21.5548 16.007 21.7239 16.2957 22.0184C16.5844 22.3129 16.7456 22.7092 16.7444 23.1216C16.7448 23.3292 16.7041 23.5349 16.6246 23.7266C16.5451 23.9184 16.4284 24.0925 16.2811 24.2388C16.1339 24.3852 15.9591 24.5009 15.7669 24.5793C15.5747 24.6577 15.3688 24.6972 15.1612 24.6955C14.9535 24.6974 14.7474 24.6581 14.5549 24.5798C14.3624 24.5015 14.1874 24.3859 14.0399 24.2395C13.8925 24.0931 13.7755 23.919 13.6958 23.7271C13.6161 23.5352 13.5752 23.3294 13.5756 23.1216C13.5756 22.2568 14.2602 21.5688 15.12 21.5477ZM24.1153 21.5477H24.1978C24.6102 21.5548 25.0032 21.7239 25.2919 22.0184C25.5806 22.3129 25.7417 22.7092 25.7406 23.1216C25.7411 23.3293 25.7005 23.5351 25.621 23.7269C25.5414 23.9188 25.4246 24.093 25.2773 24.2394C25.1299 24.3858 24.955 24.5015 24.7626 24.5798C24.5703 24.6581 24.3643 24.6974 24.1566 24.6955C23.9489 24.6973 23.7429 24.6579 23.5505 24.5796C23.3582 24.5012 23.1832 24.3855 23.0358 24.2392C22.8885 24.0928 22.7716 23.9187 22.6919 23.7269C22.6122 23.5351 22.5714 23.3293 22.5717 23.1216C22.5717 22.2568 23.2555 21.5688 24.1153 21.5477Z" fill="white"/>
</svg>
