<svg width="216" height="50" viewBox="0 0 216 50" fill="none" xmlns="http://www.w3.org/2000/svg">
<path d="M201.71 35.2554C201.235 35.2483 200.769 35.3821 200.371 35.6399C199.973 35.8977 199.66 36.2678 199.472 36.7035C199.284 37.1391 199.23 37.6209 199.315 38.0875C199.401 38.5541 199.624 38.9849 199.954 39.325C200.286 39.6653 200.71 39.8998 201.174 39.9989C201.638 40.098 202.121 40.0571 202.562 39.8816C203.003 39.7062 203.381 39.4038 203.65 39.0129C203.919 38.6221 204.066 38.1601 204.073 37.6857C204.082 37.3696 204.028 37.0549 203.914 36.7602C203.8 36.4654 203.626 36.1967 203.406 35.9699C203.185 35.7432 202.922 35.5631 202.63 35.4403C202.339 35.3176 202.026 35.2547 201.71 35.2554ZM201.71 39.7003C201.3 39.7105 200.897 39.5977 200.552 39.3764C200.207 39.1551 199.936 38.8355 199.774 38.4587C199.613 38.082 199.568 37.6654 199.645 37.2629C199.722 36.8603 199.919 36.4903 200.209 36.2004C200.499 35.9105 200.868 35.7142 201.271 35.6367C201.673 35.5592 202.09 35.6042 202.467 35.7659C202.844 35.9274 203.163 36.1982 203.385 36.5433C203.606 36.8883 203.719 37.2919 203.709 37.7016C203.709 38.2317 203.498 38.74 203.123 39.1149C202.748 39.4897 202.24 39.7003 201.71 39.7003ZM202.753 37.13C202.759 37.019 202.74 36.9081 202.7 36.8044C202.66 36.7007 202.598 36.6066 202.52 36.5279C202.441 36.4494 202.347 36.388 202.244 36.3478C202.14 36.3076 202.029 36.2895 201.918 36.2946H200.807V39.0927H201.154V37.9734H201.642L202.338 39.0847H202.821L202.058 37.9734C202.262 37.9533 202.449 37.8532 202.579 37.6951C202.71 37.5371 202.772 37.334 202.753 37.13ZM201.154 37.6137V36.5744H201.918C202.055 36.5876 202.181 36.6524 202.271 36.7556C202.363 36.8589 202.41 36.9928 202.405 37.13C202.407 37.1944 202.396 37.2583 202.371 37.318C202.347 37.3777 202.312 37.4319 202.266 37.4772C202.221 37.5225 202.166 37.558 202.106 37.5815C202.047 37.605 201.982 37.616 201.918 37.6137H201.154ZM216 5.59625C213.57 10.181 210.404 11.7759 205.455 11.7679C201.434 11.7679 197.333 10.6647 193.376 9.34557V34.9756C193.376 38.1014 194.139 38.8648 197.681 38.8648V39.8522H184.346V38.8648C187.888 38.8648 188.651 38.1014 188.651 34.9756V7.74673C185.782 6.78744 182.779 6.29223 179.753 6.27977C171.419 6.27977 168.961 10.277 168.961 13.5267C168.941 14.8762 169.363 16.1954 170.16 17.284L169.601 17.7956C168.558 16.8923 167.554 14.6859 167.554 12.8072C167.554 8.84996 171.087 4.22122 181.844 4.21322C191.925 4.21322 200.063 8.72205 207.21 8.71006C210.62 8.71006 213.605 7.74673 215.345 5.2485L216 5.59625ZM87.9621 46.4355L88.3858 47.115C85.9836 48.6501 83.1942 49.4694 80.3434 49.4774C65.2501 49.4774 54.9574 31.6819 43.7452 17.6717C43.7132 17.6277 43.7452 31.3181 43.7452 31.3181C43.7452 37.7776 44.6885 38.8648 48.6458 38.8648V39.8522H37.5136V38.8648C41.5428 38.8648 42.5061 37.6657 42.4341 30.9904V16.1248C35.7868 7.74674 28.6279 1.28728 19.1025 1.27929C8.47803 1.27929 4.19705 9.40555 4.19705 16.2128C4.19705 21.0094 6.1077 24.9386 9.8571 24.9386C10.5941 24.9697 11.3232 24.7759 11.9476 24.383L12.3473 25.0465C11.5838 25.6701 10.2968 26.0499 8.90173 26.0418C3.22173 26.0578 0 21.4331 0 16.2128C0 8.99783 6.06773 0.000187107 19.4743 0.000187107C39.0925 -0.0677651 50.1687 18.3872 60.8851 32.2455C60.9411 32.3174 60.8851 21.4211 60.8851 21.4211C60.8851 15.1015 60.0218 13.9304 56.0645 13.9304V12.8991H67.1767V13.9304C63.2155 13.9304 62.1802 15.4013 62.1802 21.7249C62.1802 21.7249 62.1362 33.7764 62.1802 33.8324C68.5238 41.8787 74.4755 47.8945 82.1342 47.8945C84.2127 47.8945 86.3672 47.5667 87.9621 46.4355ZM92.1749 31.0184H92.8023L91.4117 39.0127C88.4432 39.8193 85.3822 40.2359 82.3061 40.2519C73.0766 40.2519 67.5884 34.372 67.5884 26.5934C67.5884 18.3953 73.6322 12.6313 82.446 12.6033C84.6044 12.6033 86.619 12.963 88.7735 12.963C89.7069 12.9729 90.6388 12.8791 91.5519 12.6833L92.3346 21.3612H91.7116C89.4169 15.6652 86.5511 13.6825 82.6538 13.6746C75.7627 13.6825 72.7488 19.9862 72.7488 26.2937C72.7488 32.8931 75.7906 39.1726 82.5898 39.1726C87.6663 39.1726 90.1604 35.7391 92.1749 31.0184ZM34.0401 30.9464H34.6676L33.8322 39.8522H11.5359V38.8648C15.0094 38.8648 15.4971 37.8935 15.4971 34.9756V17.6798C15.4971 14.7658 15.0094 13.9304 11.5359 13.9304V12.9111H33.6243L34.112 21.1533H33.4845C32.2853 15.7371 30.0828 13.9304 23.2756 13.9304H20.2178V38.8648H23.6914C29.7351 38.8648 32.4452 37.13 34.0401 30.9464ZM108.012 38.8648V39.8162H95.3729V38.8648C98.8468 38.8648 99.3297 37.8935 99.3297 34.9077V17.8196C99.3297 14.9736 98.8468 13.9304 95.3729 13.9304V12.9231H108.012V13.9304C104.542 13.9304 104.123 14.9736 104.123 17.8196V34.9077C104.123 37.8935 104.542 38.8648 108.012 38.8648ZM164.413 16.4286C162.605 14.2781 161.566 13.139 158.3 13.139H153.368V13.9383C157.189 13.9383 157.461 15.7731 157.461 19.7983V25.4862C157.461 37.6417 157.537 38.8648 153.916 38.8569C150.87 38.8569 150.522 37.9615 148.72 33.6605L139.686 13.1669H139.006L131.507 30.8784C129.509 35.9868 127.882 38.8729 124.608 38.8729C122.674 38.8729 122.186 37.8416 122.186 35.1994V17.8196C122.186 14.9736 122.585 13.9304 126.148 13.9304V12.9231H113.52V13.9304C116.993 13.9304 117.477 14.9736 117.477 17.8196V35.1754C117.477 38.0934 116.993 38.8569 113.52 38.8569V39.8401H135.053V38.8648C132.135 38.8648 131.275 37.6137 131.267 35.9389C131.267 34.4599 132.646 31.0144 132.646 31.0144H142.24L143.599 34.0842C144.015 34.8767 144.251 35.7519 144.286 36.6464C144.286 38.1813 143.115 38.8769 141.028 38.8769V39.8601H164.213V38.8648C159.416 38.8648 158.848 37.3379 158.848 25.3904V18.0995C158.848 17.7517 158.82 17.6118 158.988 17.6118C159.056 17.6118 159.2 17.7237 159.332 17.8876L178.091 39.4724C178.183 39.5724 178.251 39.6163 178.295 39.6163C178.338 39.6163 178.367 39.5443 178.367 39.4164V33.3767C178.367 32.6852 178.366 32.6132 177.811 31.9897C173.374 26.7094 164.413 16.4286 164.413 16.4286ZM133.127 29.8072L137.383 19.7543L141.9 29.7912L133.127 29.8072ZM172.819 16.8403C175.54 16.8403 177.615 14.9217 177.615 11.54H178.543C178.543 14.9217 180.58 16.8403 183.303 16.8403V17.7996C180.58 17.7996 178.551 19.6144 178.551 22.968V25.6341H177.579V22.968C177.579 19.6144 175.54 17.7996 172.819 17.7996V16.8403ZM105.526 25.862C106.162 25.8728 106.793 25.7556 107.383 25.5175C107.973 25.2794 108.51 24.9252 108.96 24.476C109.41 24.0267 109.765 23.4915 110.006 22.9022C110.245 22.3129 110.364 21.6815 110.355 21.0454H111.214C111.202 21.6794 111.318 22.3095 111.554 22.8979C111.791 23.4863 112.143 24.0212 112.591 24.4706C113.039 24.9199 113.572 25.2747 114.16 25.5137C114.747 25.7528 115.376 25.8712 116.011 25.862V26.6854C115.374 26.6799 114.744 26.802 114.156 27.0444C113.569 27.2868 113.035 27.6446 112.588 28.0966C112.141 28.5486 111.789 29.0857 111.552 29.6761C111.317 30.2665 111.202 30.8983 111.214 31.534H110.355C110.364 30.8974 110.245 30.2653 110.006 29.6754C109.766 29.0855 109.41 28.5495 108.96 28.0993C108.511 27.6491 107.974 27.2937 107.384 27.0543C106.794 26.8149 106.162 26.6963 105.526 26.7054V25.862ZM21.5848 26.0179C22.222 26.0287 22.8549 25.9111 23.4457 25.672C24.0365 25.4328 24.573 25.0772 25.0233 24.6261C25.4736 24.175 25.8284 23.6379 26.0666 23.0468C26.3047 22.4556 26.4214 21.8225 26.4094 21.1853H27.2688C27.257 21.8194 27.3727 22.4494 27.6094 23.0378C27.846 23.6262 28.1985 24.161 28.6461 24.6104C29.0936 25.0598 29.6269 25.4146 30.2143 25.6537C30.8018 25.8927 31.4313 26.0111 32.0655 26.0018V26.8253C31.4296 26.8199 30.7992 26.9419 30.2113 27.1843C29.6235 27.4267 29.0902 27.7845 28.643 28.2365C28.1959 28.6885 27.8438 29.2256 27.6078 29.816C27.3718 30.4065 27.2565 31.0382 27.2688 31.6739H26.4094C26.417 31.0388 26.2972 30.4086 26.0573 29.8205C25.8174 29.2325 25.462 28.6984 25.0124 28.2498C24.5627 27.8013 24.0278 27.4473 23.439 27.2088C22.8504 26.9704 22.2199 26.8522 21.5848 26.8613V26.0179Z" fill="white"/>
</svg>
