<svg width="29" height="26" viewBox="0 0 29 26" fill="none" xmlns="http://www.w3.org/2000/svg">
<path d="M22.7067 26C22.88 26 23.14 25.9134 23.2267 25.74C23.4 25.5667 23.4 25.3934 23.4 25.22L21.4933 16.5534L28.4267 10.5734C28.6 10.4 28.6867 10.14 28.6 9.88003C28.5507 9.75752 28.4673 9.65165 28.3599 9.57488C28.2524 9.49811 28.1252 9.45364 27.9933 9.44669L18.72 8.40669L14.9067 0.346694C14.8453 0.240375 14.7568 0.152259 14.6502 0.0913514C14.5436 0.0304437 14.4228 -0.00107113 14.3 2.77861e-05C14.04 2.77861e-05 13.78 0.173361 13.6933 0.346694L9.88 8.40669L0.606667 9.53336C0.346667 9.53336 0.0866667 9.70669 0 9.96669C0 10.2267 0 10.4867 0.26 10.66L7.10667 16.64L5.2 25.1334C5.2 25.3934 5.2 25.6534 5.46 25.8267H6.24L14.3 21.4934L22.36 25.8267L22.7067 25.9134V26ZM21.6667 24.0934L14.56 20.1934C14.4546 20.1325 14.335 20.1005 14.2133 20.1005C14.0916 20.1005 13.9721 20.1325 13.8667 20.1934L6.76 24.0934L8.49333 16.4667C8.49333 16.2067 8.40667 15.9467 8.23333 15.7734L2.16667 10.5734L10.3133 9.70669C10.5733 9.70669 10.7467 9.53336 10.8333 9.36003L14.2133 2.25336L17.5933 9.36003C17.68 9.53336 17.8533 9.70669 18.1133 9.70669L26.26 10.5734L20.1933 15.7734C20.02 15.9467 19.9333 16.2067 20.02 16.4667L21.6667 24.0934Z" fill="#1B2C5C"/>
</svg>
