<svg width="111" height="28" viewBox="0 0 111 28" fill="none" xmlns="http://www.w3.org/2000/svg">
<path d="M62.924 9.07722C62.924 5.82734 62.98 2.80161 63.1481 0L54.5752 1.62494V2.40938L55.4157 2.52144C56.0321 2.57748 56.4243 2.80161 56.6485 3.1378C56.8726 3.53002 57.0407 4.09035 57.1528 4.93082C57.2648 6.55575 57.3769 10.2539 57.3208 16.0812C57.3208 21.8526 57.2648 25.4946 57.1528 26.8954C60.2345 27.5678 62.6439 27.848 64.4369 27.848C67.7988 27.848 70.4323 26.8954 72.3374 24.9343C74.2425 23.0292 75.2511 20.3397 75.2511 17.0338C75.2511 14.4003 74.5227 12.215 73.0658 10.478C71.609 8.74101 69.76 7.90053 67.5747 7.90053C66.1178 7.90053 64.6049 8.29276 62.924 9.07722ZM63.0921 26.3351C62.98 24.542 62.868 19.163 62.868 10.366C63.3723 10.1978 64.0447 10.0858 64.8851 10.0858C66.2299 10.0858 67.2945 10.7582 68.079 12.1589C68.8635 13.5597 69.2557 15.2407 69.2557 17.3699C69.2557 20.0034 68.8074 22.1326 67.9108 23.9257C67.0143 25.6627 65.8937 26.5592 64.4929 26.5592C64.0447 26.4471 63.5964 26.3912 63.0921 26.3351ZM22.4128 0.560325H0V1.68097L1.17668 1.79303C2.07319 1.96113 2.68954 2.29732 3.08177 2.80161C3.47398 3.36193 3.69812 4.25845 3.75415 5.49115C4.20241 11.5426 4.20241 17.2018 3.75415 22.4128C3.64208 23.6455 3.41796 24.542 3.08177 25.1024C2.68954 25.6627 2.07319 25.9989 1.17668 26.111L0 26.279V27.3997H14.4562V26.279L12.9434 26.167C12.5742 26.1361 12.2152 26.0308 11.8877 25.8575C11.5603 25.6842 11.2714 25.4463 11.0383 25.1584C10.6461 24.5981 10.4219 23.7016 10.366 22.4689C10.1978 20.2275 10.0858 17.6501 10.0858 14.7925L13.1115 14.8485C14.7364 14.9046 15.8571 16.1373 16.4174 18.6026H17.5381V9.46945H16.4174C15.8571 11.8788 14.7925 13.1115 13.1115 13.1675L10.0858 13.2236C10.0858 8.18068 10.1978 4.59464 10.366 2.40938H14.7925C17.9303 2.40938 20.0595 4.42654 21.2922 8.46085L22.6369 8.06862L22.4128 0.560325ZM19.7793 17.8183C19.7793 20.7318 20.6198 23.1412 22.2448 25.0463C23.8697 26.9514 26.2791 27.848 29.3048 27.848C32.3306 27.848 34.7959 26.8954 36.589 24.9343C38.382 23.0292 39.2225 20.6198 39.2225 17.7061C39.2225 14.7924 38.382 12.3831 36.757 10.478C35.1321 8.57291 32.7227 7.67639 29.697 7.67639C26.6712 7.67639 24.2059 8.62895 22.4128 10.5901C20.6198 12.4952 19.7793 14.9046 19.7793 17.8183ZM32.2745 11.4305C32.9469 13.0555 33.227 15.1847 33.227 17.7622C33.227 23.7016 31.9943 26.6153 29.5849 26.6153C28.3522 26.6153 27.3997 25.7747 26.7273 24.0938C26.0549 22.4128 25.7748 20.2836 25.7748 17.7622C25.7748 11.8788 27.0075 8.96513 29.4169 8.96513C30.6496 8.90911 31.6021 9.74964 32.2745 11.4305ZM79.6215 25.0463C81.4707 26.8955 83.824 27.848 86.6256 27.848C88.3626 27.848 89.8754 27.5118 91.2202 26.7833C92.565 26.111 93.6296 25.2704 94.358 24.2619L93.7977 23.5895C92.565 24.542 91.1642 24.9904 89.5393 24.9904C87.2979 24.9904 85.561 24.2619 84.3843 22.749C83.1516 21.2361 82.5913 19.331 82.7034 16.8657H94.6942C94.6942 14.1761 94.0218 11.9909 92.621 10.2539C91.2202 8.57291 89.2591 7.73243 86.7377 7.73243C83.5999 7.73243 81.1905 8.74101 79.4535 10.7021C77.7164 12.6632 76.876 15.0726 76.876 17.9303C76.876 20.844 77.7725 23.1973 79.6215 25.0463ZM83.7679 10.9823C84.3843 9.63748 85.1687 8.96513 86.2334 8.96513C87.9144 8.96513 88.7548 11.0944 88.7548 15.4089L82.8154 15.5209C82.8715 13.8399 83.1516 12.3271 83.7679 10.9823ZM109.767 8.74101C108.254 8.06862 106.348 7.67639 104.052 7.67639C101.698 7.67639 99.8492 8.29276 98.4484 9.46945C97.0475 10.6461 96.3191 12.1029 96.3191 13.8399C96.3191 15.3528 96.7674 16.5295 97.6079 17.3699C98.4484 18.2104 99.7931 18.9389 101.53 19.5552C103.099 20.1155 104.219 20.6759 104.78 21.1801C105.34 21.7404 105.677 22.3569 105.677 23.1973C105.677 23.9818 105.396 24.7102 104.78 25.2704C104.219 25.8868 103.436 26.167 102.427 26.167C99.9611 26.167 98.1122 24.3739 96.8234 20.7879L95.8708 21.0681L96.095 26.6712C98.1122 27.4557 100.353 27.848 102.818 27.848C105.396 27.848 107.357 27.2876 108.814 26.111C110.271 24.9904 111 23.3653 111 21.3482C111 20.0034 110.663 18.8828 109.935 18.0424C109.207 17.2018 108.03 16.4734 106.348 15.8011C104.5 15.1287 103.211 14.5123 102.539 13.952C101.866 13.3917 101.53 12.7193 101.53 11.8788C101.53 11.0383 101.754 10.366 102.259 9.80561C102.763 9.24535 103.379 9.02114 104.164 9.02114C106.405 9.02114 108.03 10.6461 109.038 13.8399L109.991 13.5597L109.767 8.74101ZM55.864 8.23672C55.0795 7.84449 54.2391 7.67639 53.2865 7.67639C52.334 7.67639 51.3814 8.06862 50.3168 8.85307C49.2522 9.63748 48.4678 10.7021 47.8514 12.1589L47.9074 7.67639L39.3906 9.3574V10.1418L40.231 10.1978C41.2956 10.3099 41.912 11.1503 42.0241 12.6632C42.3603 16.1373 42.3603 19.8354 42.0241 23.7576C41.912 25.2704 41.2956 26.0549 40.231 26.223L39.3906 26.3351V27.3997H51.2693V26.3351L49.7565 26.223C48.6919 26.111 48.0756 25.2704 47.9635 23.7576C47.6272 20.5077 47.5713 17.0338 47.8514 13.4477C48.1876 12.8874 48.916 12.5512 50.0366 12.4391C51.1573 12.3271 52.446 12.6632 53.7908 13.4477L55.864 8.23672Z" fill="white"/>
</svg>
