<svg width="200" height="80" viewBox="0 0 200 80" fill="none" xmlns="http://www.w3.org/2000/svg">
<path d="M0 74.4294H38.7754V79.9801H0V74.4294Z" fill="white"/>
<path d="M0 63.7821H38.7754V69.3524H0V63.7821Z" fill="white"/>
<path d="M11.0615 53.1557H27.6936V58.7262H11.0615V53.1557Z" fill="white"/>
<path d="M11.0615 42.5294H27.6936V48.0998H11.0615V42.5294Z" fill="white"/>
<path d="M11.0615 31.9001H27.6936V37.4705H11.0615V31.9001Z" fill="white"/>
<path d="M11.0615 21.2556H27.6936V26.8261H11.0615V21.2556Z" fill="white"/>
<path d="M38.7754 10.6264H0V16.1968H38.7754V10.6264Z" fill="white"/>
<path d="M38.7754 0H0V5.57044H38.7754V0Z" fill="white"/>
<path d="M44.3066 69.3525H103.941C104.949 67.634 105.7 65.7574 106.154 63.7821H44.3066V69.3525Z" fill="white"/>
<path d="M99.2977 42.5294H55.3863V48.0998H103.94C102.675 45.9662 101.115 44.0899 99.2977 42.5294Z" fill="white"/>
<path d="M55.3863 31.9001V37.4705H99.2977C101.155 35.91 102.715 34.0333 103.94 31.9001H55.3863Z" fill="white"/>
<path d="M103.942 10.6264H44.3066V16.1968H106.154C105.641 14.2215 104.89 12.345 103.942 10.6264Z" fill="white"/>
<path d="M85.6106 0H44.3066V5.57044H99.8526C96.1391 2.13329 91.1022 0 85.6106 0Z" fill="white"/>
<path d="M71.9986 21.2556H55.3863V26.8261H71.9986V21.2556Z" fill="white"/>
<path d="M88.6345 26.8261H106.017C106.511 25.0484 106.768 23.1717 106.768 21.2556H88.6345V26.8261Z" fill="white"/>
<path d="M55.3863 53.1557H71.9986V58.7262H55.3863V53.1557Z" fill="white"/>
<path d="M88.6345 53.1557V58.7262H106.768C106.768 56.8101 106.511 54.9336 106.017 53.1557H88.6345Z" fill="white"/>
<path d="M44.3066 79.9407L85.6107 79.9999C91.1416 79.9999 96.1392 77.8666 99.8724 74.4294H44.3066V79.9407Z" fill="white"/>
<path d="M110.797 74.4294H138.491V79.9801H110.797V74.4294Z" fill="white"/>
<path d="M110.797 63.7821H138.491V69.3524H110.797V63.7821Z" fill="white"/>
<path d="M121.858 53.1557H138.491V58.7262H121.858V53.1557Z" fill="white"/>
<path d="M121.858 42.5294H138.491V48.0998H121.858V42.5294Z" fill="white"/>
<path d="M146.195 10.6264H110.797V16.1968H148.111L146.195 10.6264Z" fill="white"/>
<path d="M142.52 0H110.797V5.57044H144.437L142.52 0Z" fill="white"/>
<path d="M171.716 74.4294H199.43V79.9801H171.716V74.4294Z" fill="white"/>
<path d="M171.716 63.7821H199.43V69.3524H171.716V63.7821Z" fill="white"/>
<path d="M171.716 53.1557H188.348V58.7262H171.716V53.1557Z" fill="white"/>
<path d="M171.716 42.5294H188.348V48.0998H171.716V42.5294Z" fill="white"/>
<path d="M171.716 37.4705H188.348V31.9001H171.716H156.663L155.103 36.404L153.543 31.9001H138.491H121.858V37.4705H138.491V32.3544L140.249 37.4705H169.958L171.716 32.3544V37.4705Z" fill="white"/>
<path d="M188.349 21.2556H160.339L158.424 26.8261H188.349V21.2556Z" fill="white"/>
<path d="M167.707 0L165.79 5.57044H199.43V0H167.707Z" fill="white"/>
<path d="M155.103 79.9407L157.019 74.4294H153.186L155.103 79.9407Z" fill="white"/>
<path d="M151.43 69.3524H158.778L160.753 63.7821H149.474L151.43 69.3524Z" fill="white"/>
<path d="M147.696 58.7262H162.511L164.466 53.1557H145.74L147.696 58.7262Z" fill="white"/>
<path d="M143.983 48.0998H166.245L168.142 42.5294H142.067L143.983 48.0998Z" fill="white"/>
<path d="M121.858 26.8261H151.784L149.869 21.2556H121.858V26.8261Z" fill="white"/>
<path d="M162.115 16.1968H199.428V10.6264H164.011L162.115 16.1968Z" fill="white"/>
</svg>
