<svg width="216" height="26" viewBox="0 0 216 26" fill="none" xmlns="http://www.w3.org/2000/svg">
<path d="M156.004 0H155.137V25.2843H156.004V0Z" fill="white"/>
<path d="M11.3105 3.12652L13.2776 3.62343L13.7405 4.20804V14.4094H13.6247L3.32663 2.07422H0.578546V2.74652L2.2274 4.61726V17.5371L0 18.1509V18.9109H6.0458V18.1509L4.1366 17.654L3.67376 17.0402V6.2834L14.2612 19.057H15.2157V3.71112L17.472 3.00959V2.22038H11.3105V3.12652Z" fill="white"/>
<path d="M23.6334 6.92822C20.7985 6.92822 17.7611 9.00358 17.7611 13.0959C17.7611 17.2465 20.6249 19.1758 23.6334 19.1758C26.4104 19.1758 29.5634 16.8666 29.5634 12.8913C29.5634 8.79896 26.5839 6.92822 23.6334 6.92822ZM23.9515 18.0649C21.4349 18.0649 20.0753 15.5804 20.0753 12.7743C20.0753 9.93892 21.1456 8.06821 23.2863 8.06821C25.6872 8.06821 27.2203 10.4651 27.2203 13.3005C27.2493 16.1066 26.1211 18.0649 23.9515 18.0649Z" fill="white"/>
<path d="M62.7422 17.1285V10.8732C62.7422 7.83323 60.833 6.95632 58.8081 6.95632C57.1593 6.95632 54.7583 8.88552 54.7583 8.88552V5.37788C54.7583 3.41944 54.874 0.847168 54.874 0.847168H54.6137L50.9109 2.10407V2.68868C52.0969 2.68868 52.6466 3.30252 52.6466 5.4948V17.6547L50.9978 18.2977V18.9407H56.8122V18.2977L55.1922 17.7131L54.7293 17.0992V11.6916V9.82093C54.7293 9.82093 55.7418 8.65168 57.275 8.65168C59.0974 8.65168 60.6595 9.20709 60.6595 12.0424L60.5726 17.6254L58.9817 18.2392V18.8824H64.796V18.2392L63.1761 17.6547L62.7422 17.1285Z" fill="white"/>
<path d="M89.1824 17.421C86.9261 17.421 84.959 15.9595 84.959 12.4518H92.3359C92.3359 12.4518 92.4516 11.8088 92.4516 11.1073C92.4516 8.38883 90.5998 6.95654 88.2278 6.95654C85.1905 6.95654 82.7316 9.55806 82.7316 13.1534C82.7316 17.0994 85.2773 19.2333 88.1121 19.2333C90.2238 19.2333 91.8723 17.9472 92.4806 17.3333L92.2194 16.8656C92.2483 16.8364 90.5709 17.421 89.1824 17.421ZM87.9097 8.12575C89.5007 8.12575 90.2528 8.9442 90.2528 9.99648C90.2528 11.2242 89.8188 11.458 88.6328 11.5165L84.959 11.6334C84.959 9.61653 86.2318 8.12575 87.9097 8.12575Z" fill="white"/>
<path d="M100.06 12.2472L98.9316 11.6627C96.965 10.6396 96.646 10.2596 96.646 9.47039C96.646 8.44729 97.6013 8.0673 98.6135 8.0673C100.146 8.0673 100.899 8.73959 100.899 10.5811H101.911L102.229 7.62884C102.229 7.62884 100.87 6.95654 99.0762 6.95654C96.5592 6.95654 94.9397 8.03806 94.9397 10.318C94.9397 12.1304 95.8362 12.8903 97.6591 13.8256L98.9316 14.498C99.886 14.9949 100.668 15.521 100.668 16.4564C100.668 17.4795 100.088 18.2103 98.6424 18.2103C97.2253 18.2103 96.1254 17.1579 95.8073 15.521H94.7083L94.8529 17.9179C94.8818 18.4441 95.3156 18.7072 95.4892 18.7656C96.2122 19.0579 97.341 19.2333 98.6135 19.2333C100.609 19.2333 102.663 18.0056 102.663 15.9302C102.692 14.2057 102.114 13.2996 100.06 12.2472Z" fill="white"/>
<path d="M120.048 17.421C117.791 17.421 115.825 15.9595 115.825 12.4518H123.201C123.201 12.4518 123.317 11.8088 123.317 11.1073C123.317 8.38883 121.465 6.95654 119.094 6.95654C116.056 6.95654 113.597 9.55806 113.597 13.1534C113.597 17.0994 116.143 19.2333 118.978 19.2333C121.06 19.2333 122.739 17.9472 123.346 17.3333L123.086 16.8656C123.115 16.8656 121.436 17.421 120.048 17.421ZM118.776 8.12575C120.366 8.12575 121.118 8.9442 121.118 9.99648C121.118 11.2242 120.684 11.458 119.499 11.5165L115.825 11.6334C115.825 9.61653 117.097 8.12575 118.776 8.12575Z" fill="white"/>
<path d="M146.749 17.1281L146.778 10.7558C146.778 7.80353 144.869 6.98508 142.931 6.95586C141.282 6.95586 138.968 8.88506 138.968 8.88506C138.968 7.83276 139.025 6.86816 139.025 6.86816H138.823L135.178 8.21276V8.8266C136.567 8.8266 136.943 10.0835 136.943 12.3635V17.6541L135.294 18.2973V18.9403H141.022L141.08 18.2973L139.459 17.7126L138.968 17.0988V9.84968C138.968 9.84968 139.835 8.65121 141.427 8.65121C143.046 8.65121 144.725 9.23584 144.725 12.0419L144.638 17.6834L143.046 18.2973V18.9403H148.774L148.832 18.2973L147.212 17.7126L146.749 17.1281Z" fill="white"/>
<path d="M77.9594 7.92181L79.666 8.53565L77.0336 16.1648L74.4881 8.4772L75.9923 8.00951V7.24951H71.2193V7.95104L72.0871 8.15565L72.7524 10.1141L72.2896 11.3418L70.3225 16.1355L68.0662 8.4772L69.5704 7.98028V7.27875H64.6528V7.98028C65.4627 7.98028 65.6942 8.65257 66.1281 9.82183L69.1365 19.0586H70.1778L73.2441 11.5756L75.9055 19.0586H77.0915L80.0999 10.4357C80.9099 8.36027 81.4016 8.0972 82.4141 7.95104V7.24951H77.9304V7.92181H77.9594Z" fill="white"/>
<path d="M47.5844 17.6543C46.4563 17.6543 45.4438 17.0112 45.4727 15.4621L45.5884 8.85597H49.2911H49.32L49.3779 8.44674L49.6383 6.37139L49.1754 6.2837L48.8283 7.07292L48.6258 7.2483L45.6752 7.36523H45.6463V4.35449L44.1999 4.61757L43.5635 7.48215L41.5097 7.68676V8.68058C42.6379 8.68058 43.5635 8.76828 43.5635 9.87907C43.5635 10.9605 43.4767 14.3805 43.4767 15.7251C43.4767 18.2974 44.4603 19.262 46.0802 19.262C47.4687 19.262 48.6258 18.6774 49.6672 17.8297L49.4068 17.2451C49.32 17.1866 48.6258 17.6543 47.5844 17.6543Z" fill="white"/>
<path d="M110.358 17.6543C109.23 17.6543 108.218 17.0112 108.247 15.4621L108.334 8.85597H112.035L112.094 8.44674L112.354 6.37139L111.891 6.2837L111.544 7.07292L111.341 7.2483L108.391 7.36523V4.35449L106.944 4.61757L106.308 7.48215L104.254 7.68676V8.68058C105.383 8.68058 106.308 8.76828 106.308 9.87907C106.308 10.9605 106.192 14.3805 106.192 15.7251C106.192 18.2974 107.176 19.262 108.796 19.262C110.184 19.262 111.341 18.6774 112.383 17.8297L112.123 17.2451C112.123 17.2158 111.428 17.6543 110.358 17.6543Z" fill="white"/>
<path d="M38.4431 6.95586C36.7074 6.95586 34.8851 9.73273 34.8851 9.73273C34.8851 8.18353 34.9429 6.86816 34.9429 6.86816H34.7115L31.1534 8.21276V8.8266C32.5131 8.8266 32.918 10.0543 32.918 12.1589V17.6541L31.2691 18.2973V18.9403H37.0257V18.2973L35.4058 17.7126L34.914 17.0988V11.6912C34.914 10.025 36.2157 9.0897 37.6042 9.0897C37.8935 9.0897 38.1828 9.14818 38.4431 9.23584L38.8192 9.8204L39.3109 9.84968L39.687 7.04355C39.687 7.102 39.2531 6.95586 38.4431 6.95586Z" fill="white"/>
<path d="M128.871 9.73273C128.871 8.18353 128.929 6.86816 128.929 6.86816H128.726L125.168 8.21276V8.8266C126.527 8.8266 126.933 10.0543 126.933 12.1589V17.6541L125.284 18.2973V18.9403H131.012V18.2973L129.391 17.7126L128.9 17.0988V11.6912C128.9 10.025 130.201 9.0897 131.59 9.0897C131.879 9.0897 132.169 9.14818 132.429 9.23584L132.834 9.8204L133.325 9.84968L133.701 7.04355C133.701 7.04355 133.267 6.89739 132.458 6.89739C130.694 6.95586 128.871 9.73273 128.871 9.73273Z" fill="white"/>
<path d="M171.335 7.51334C170.381 6.54874 169.079 6.08105 167.748 6.08105C166.418 6.08105 165.116 6.54874 164.161 7.51334C162.802 8.88717 162.57 10.5825 162.57 12.6579C162.57 14.7332 162.802 16.3994 164.161 17.7732C165.116 18.7378 166.418 19.2055 167.748 19.2055C168.5 19.2055 169.253 19.0594 169.947 18.767L171.104 20.2286L172.463 19.147L171.364 17.744C172.694 16.3701 172.927 14.704 172.927 12.6579C172.927 10.5825 172.694 8.88717 171.335 7.51334ZM169.976 15.9609L168.587 14.2071L167.198 15.2886L168.529 16.984C168.268 17.0716 167.979 17.1009 167.719 17.1009C166.996 17.1009 166.244 16.8086 165.752 16.2532C164.884 15.3471 164.855 13.7978 164.855 12.6286C164.855 11.4594 164.884 9.9102 165.752 9.00409C166.244 8.47794 166.996 8.15641 167.719 8.15641C168.442 8.15641 169.195 8.44871 169.687 9.00409C170.554 9.9102 170.583 11.4886 170.583 12.6286C170.612 13.681 170.583 15.0548 169.976 15.9609Z" fill="white"/>
<path d="M178.25 6.31396L173.853 18.9707H176.139L176.948 16.5446H181.924L182.734 18.9707H185.106L180.709 6.34319H178.25V6.31396ZM177.671 14.4692L179.465 9.14932L181.258 14.4692H177.671Z" fill="white"/>
<path d="M193.956 6.34424H184.266V8.47806H187.969V18.9718H190.253V8.47806H193.956V6.34424Z" fill="white"/>
<path d="M197.804 6.34424L193.408 18.9718H195.693L196.503 16.5456H201.478L202.288 18.9718H204.66L200.264 6.34424H197.804ZM197.226 14.4703L199.019 9.15031L200.813 14.4703H197.226Z" fill="white"/>
<path d="M216 10.2611C216 8.21498 214.64 6.34424 211.66 6.34424H206.396V18.9718H208.681V14.2072H211.458L213.541 18.9718H216L213.714 13.798C215.103 13.301 216 11.9565 216 10.2611ZM211.689 12.1318H208.652V8.36114H211.66C212.934 8.36114 213.714 9.26726 213.714 10.2611C213.743 11.4595 212.991 12.1318 211.689 12.1318Z" fill="white"/>
</svg>
