<?xml version="1.0" encoding="UTF-8"?>
<svg id="Layer_1" xmlns="http://www.w3.org/2000/svg" version="1.1" viewBox="0 0 1096.69 1234.78">
  <!-- Generator: Adobe Illustrator 29.8.1, SVG Export Plug-In . SVG Version: 2.1.1 Build 2)  -->
  <defs>
    <style>
      .st0 {
        fill: #fff;
      }
    </style>
  </defs>
  <path class="st0" d="M552.66,1234.78c-23-.16-46.15-3.14-64.97-17.53-32.06-24.52-78.34-47.84-114.36-68.64-111.09-64.16-222.98-127.26-334.75-190.25-4.38-2.47-7.2-2.49-11.96-7.04-10.77-10.27-23.96-33.97-23.96-49.04v-273.5l94.08,51.66.88,150.67,41.04,22.67v-294c-6.25-1.12-12.88-5.6-18.67-8.83-34.24-19.07-72.01-38.45-105-59-5.03-3.13-8.69-7.22-14.16-9.33l-.21-129.38,2.05-15.46,263.83,148.66c.76,97.95-.45,195.93.11,293.89.02,2.85,1.07,5.31,1.09,7.91.27,46-.31,92.02-.02,138.02l2.01,2.99,40.96,22.53.65-473.1c1.13-.94,3.39-1.26,4.35-1.9,39.24,17.86,78.16,36.22,117.38,54.12,5.08,2.32,25.45,13.62,29.62,12.88l.49,118.01,98.51,55.99-2,158c-2.81,1.51-6.14,4.6-9.24,3.82l-81.1-46.99-7.67-2.83v206.5l78.98,46.1c2.58.73,11.87-4.87,15.02-6.6l-3,159Z"/>
  <path class="st0" d="M561.66,717.78l180-100v351l39.45-22.05,1.49-3.51c.25-51.58-.15-103.66.11-154.9l.12-193.87,123.15-73.85,21.68-9.81c-.08,98.5.1,197.03.05,295.54,0,20.16,0,40.76,0,60.9,0,54.79.03,109.61-.21,164.39-4.18.39-5.67,3.85-8.1,5.5-4.46,3.03-10.27,5.98-15.06,8.83-49.94,29.66-101.6,57-152.42,84.61-50.74,29.93-102.08,61.79-154.39,89.59-15.04,7.99-27.78,14.76-44.86,14.64l3-159c11.32-6.21,22.07-13.7,33.84-19.16l1.16-195.34-2.38-2.42c-9.43,5.73-18.91,11.7-28.62,16.91l2-158Z"/>
  <path class="st0" d="M315.66,476.78c8.33-5.54,16.77-10.97,25.33-16.17l214.69-122.33-.64-2.58-186.63-106.78-122.75,69.87,160.98,93.49-122.73,69.33c-1.67.35-17.71-8.17-20.78-9.8-80.32-42.82-162.82-89.77-241.8-135.2-1.7-.98-8.85-5.26-8.55-7.14,8.51-14.94,23.19-24.63,37.37-33.69,27.6-17.65,57.6-33.49,85.15-49.85,27.77-16.49,57.01-31.54,84.12-48.15s58-32.73,85.9-49.84c20.6-12.63,42.88-24.6,63.35-35.84,1.83-1,7.55-4.89,8.75-5.14,2.71-.58,23.34,12.59,27.58,15,73.4,41.7,147.71,84.46,221.34,126.66,63.92,36.63,127.87,73.22,191.33,110.69l-2.66,3.31-352.33,201.17c-4.17.74-24.54-10.56-29.62-12.88-39.22-17.9-78.14-36.27-117.38-54.12Z"/>
  <path class="st0" d="M1084.66,305.78c6.43,10.51,10.85,21.04,12.04,33.46l-.05,562.02c-5.42,62.88-81.23,81.52-125.04,111.96l-3.94.56.07-632.57-2.07-6.43,119-69Z"/>
  <path class="st0" d="M1084.66,305.78l-119,69L425.66,63.77c.69-6.04,5.04-5.21,8.4-7.08,28.53-15.92,56.88-32.93,84.34-49.92,15.24-9.43,46.06-8.02,62.53-1.75l485.03,279.97c8.04,5,13.85,12.87,18.7,20.8Z"/>
  <path class="st0" d="M563.66,602.78l-2.65-2.84c-20.73-13.12-45.48-23.82-65.65-37.36-1.72-1.15-5.48-2.5-4.64-5.21l143.45-80.65,73.88,40.96c1.23.94.56,2.75.62,4.1l-145,81Z"/>
  <path class="st0" d="M782.66,477.78c-.49-2.1-10.71-7.62-13.33-9.17-17-10.07-36.68-19.31-52.98-30.02-1.53-1.01-7.17-4.26-6.7-6.28l143.5-80.52c19.71,12.37,42.26,21.61,61.76,34.02.72.46.98,1.64,1.99,2.29,4.36,2.8,10.22,3.5,10.75,8.69l-145,81Z"/>
  <path class="st0" d="M708.66,521.78c.98,23.09-.77,46.42.05,69.55l-.98,3.02-142.6,84.4-1.47-1.45v-74.52s145-81,145-81Z"/>
  <path class="st0" d="M927.66,396.78c2.2,21.56-1.68,46.6.05,68.55-.05,4.17-4.77,4.93-6.67,8.29l-136.9,80.15-1.48-1.47v-74.52s145-81,145-81Z"/>
</svg>