<svg width="245" height="41" viewBox="0 0 245 41" fill="none" xmlns="http://www.w3.org/2000/svg">
<path d="M109.533 30.8887H0L23.0608 0H132.612L109.551 30.8887M49.7629 7.92858L42.2074 17.9395C42.2074 17.9395 40.848 19.7608 41.4792 21.582C41.8133 22.3928 42.3691 23.0929 43.083 23.6019C43.7968 24.1109 44.6397 24.4082 45.5148 24.4596L49.0832 24.6357H49.8114C51.3179 24.6765 52.8192 24.442 54.2415 23.9436C55.7456 23.2177 57.1065 22.2265 58.259 21.0174C58.5017 20.7442 68.2783 7.89216 68.2783 7.89216H60.6197L53.1188 18.2552C52.835 18.6283 52.4674 18.9294 52.0457 19.134C51.624 19.3386 51.16 19.441 50.6914 19.4329C49.8721 19.4329 48.8344 18.4798 49.9692 17.211C50.4183 16.6889 57.0453 7.92858 57.0453 7.92858H49.7629ZM40.4657 8.00751H40.3201L29.7364 8.05L17.7811 24.1743H24.4566L27.3574 20.5743H34.215C38.9789 20.5743 40.8905 17.6359 40.8905 17.6359L43.2087 14.4912C43.2087 14.4912 44.8109 12.3057 43.9673 10.0413C43.2634 8.15321 41.0908 8.01358 40.4718 8.01358M70.906 7.93466L58.7687 24.15H65.4443L71.61 16.3914L71.962 20.1918L78.9773 16.6221L73.2728 24.0893H80.3003L92.4376 7.88002H84.427L77.3752 12.0993L76.9201 7.92858H70.9M92.5832 20.8353H97.335L94.9075 24.0529H101.886C101.886 24.0529 108.265 15.9907 108.756 15.2683C109.251 14.4871 109.525 13.5864 109.55 12.6619C109.574 11.7373 109.348 10.8234 108.896 10.017C107.682 7.96501 104.963 7.88609 104.557 7.88609H95.2777L83.2132 24.0529H90.0951L92.5832 20.8353ZM101.498 15.7843H96.3822L98.4213 13.0221H101.868C102.039 12.9978 102.213 13.0343 102.359 13.1253C102.506 13.2163 102.615 13.356 102.669 13.5199C102.735 13.7453 102.709 13.9876 102.596 14.1937L101.498 15.7843ZM33.9844 15.6325H31.7147L33.9359 12.676H35.805C36.0842 12.676 36.8549 12.7246 37.0187 13.2345C37.2433 14.0055 36.3512 14.989 35.9446 15.2319C35.3502 15.528 34.6903 15.6679 34.0269 15.6386" fill="white"/>
<path d="M221.914 30.8887H112.193L135.272 0H245L221.939 30.8887M177.213 17.4052C179.502 17.507 181.759 17.9912 183.888 18.838C187.53 20.125 191.778 21.1874 191.778 21.1874C199.582 22.3287 208.77 25.8134 210.59 26.3416C211.447 26.6192 212.337 26.7825 213.236 26.8273C213.94 26.8273 214.45 26.633 214.523 26.117C214.675 25.0546 213.006 25.0546 211.95 25.0546C210.921 24.9398 209.914 24.6802 208.958 24.2836C208.958 24.2836 204.024 21.327 202.361 20.1918C200.698 19.0565 200.316 18.067 201.603 17.8424C201.849 17.7963 202.099 17.774 202.349 17.7756C203.344 17.7756 204.279 18.0791 205.311 18.1398C206.609 18.2187 207.216 18.067 208.199 18.8258C208.422 19.0271 208.707 19.147 209.006 19.1658C209.127 19.1617 209.246 19.1286 209.351 19.0695C209.457 19.0104 209.547 18.9268 209.613 18.8258C210.409 18.3056 211.122 17.6668 211.725 16.9317C212.259 16.1 211.804 15.7175 211.804 15.7175C211.804 15.7175 211.501 14.9587 210.669 12.8399C209.941 10.958 207.592 10.6241 206.864 10.6241H206.658C206.624 10.6297 206.589 10.6297 206.555 10.6241C206.47 10.6156 206.387 10.5902 206.312 10.5496C206.237 10.5089 206.171 10.4538 206.118 10.3873L205.365 9.40381C205.365 9.40381 203.114 11.2251 201.463 11.2251C201.374 11.2311 201.285 11.2311 201.196 11.2251C198.247 10.8244 198.095 9.17919 189.987 8.18963C188.543 8.02684 187.09 7.94981 185.636 7.95894C178.068 7.95894 169.287 9.68307 167.782 9.93805C167.334 10.0039 166.882 10.0343 166.429 10.0291C165.253 10.0084 164.081 9.90082 162.921 9.70736C158.693 9.1935 154.436 8.94613 150.177 8.96671C145.381 8.96542 140.588 9.21466 135.819 9.71343C135.819 9.71343 133.318 10.017 133.47 10.7758C133.622 11.5347 135.667 11.5347 135.667 11.5347H136.11C137.19 11.5347 143.392 10.7091 148.023 10.7091H148.162C152.805 10.7091 158.242 11.1522 158.242 11.1522H158.291C159.898 11.222 161.499 11.3903 163.085 11.6561C163.435 11.7084 163.77 11.8324 164.07 12.0204C164.37 12.2085 164.627 12.4565 164.827 12.7489C165.051 13.101 164.948 13.5138 164.523 14.1148C163.453 15.1864 162.273 16.1427 161.003 16.9681C160.138 17.4362 159.157 17.6468 158.175 17.5752C157.696 17.5752 157.217 17.5752 156.737 17.5388H156.604C156.212 17.5188 155.822 17.5939 155.465 17.7578C155.109 17.9217 154.798 18.1694 154.559 18.4798C153.147 19.8935 151.548 21.1068 149.807 22.0859C149.196 22.406 148.61 22.7712 148.053 23.1787C147.155 23.6444 146.173 23.9251 145.164 24.0043C144.242 24.0832 144.169 24.4839 144.169 24.4839L143.483 25.6374C143.095 26.2445 143.799 26.2809 143.799 26.2809C144.504 26.4065 145.219 26.4755 145.935 26.4873C148.362 26.4873 149.576 25.4188 152.732 23.5308C155.402 21.922 156.98 21.5759 158.509 21.5759C159.298 21.5759 160.093 21.667 161.052 21.7277C161.659 21.7641 162.266 21.7884 162.873 21.7884C164.349 21.8489 165.819 21.5685 167.169 20.9689C169.407 19.8207 171.711 18.807 174.069 17.9334C175.062 17.5763 176.11 17.3994 177.164 17.4113" fill="white"/>
<path d="M24.2372 40.4735H21.391C21.2454 40.4735 21.209 40.4735 21.209 40.2914V34.7305C21.209 34.5726 21.2454 34.5483 21.391 34.5483H24.2251C24.4011 34.5483 24.4496 34.5483 24.4496 34.6455L24.4132 34.7669L24.2494 35.3436C24.2464 35.3652 24.2392 35.3861 24.2281 35.4048C24.2169 35.4236 24.2022 35.44 24.1847 35.453C24.1671 35.466 24.1472 35.4754 24.126 35.4806C24.1048 35.4858 24.0828 35.4867 24.0612 35.4832H22.3802V36.9099H23.8428C24.0066 36.9099 24.0309 36.9099 24.0309 37.092V37.6384C24.0309 37.7963 23.9945 37.8205 23.8428 37.8205H22.3802V39.5143H24.2008C24.3647 39.5143 24.389 39.5143 24.389 39.6964V40.2671C24.389 40.425 24.389 40.4492 24.213 40.4492" fill="white"/>
<path d="M39.5978 40.4735H39.0273C38.906 40.4735 38.8756 40.4735 38.8271 40.3521L37.2492 37.4016C37.0298 37.0368 36.8643 36.6422 36.7577 36.23V37.177V40.2914C36.7577 40.4492 36.7577 40.4735 36.5817 40.4735H35.9748C35.8231 40.4735 35.7988 40.4735 35.7988 40.2914V34.7305C35.7988 34.5726 35.7988 34.5483 35.9748 34.5483H36.6848C36.8123 34.5483 36.8366 34.5483 36.8851 34.6576L38.3112 37.3409C38.5213 37.7417 38.69 38.1627 38.8149 38.5976C38.8149 38.3244 38.8149 37.7173 38.8149 37.4745V34.7305C38.8149 34.5726 38.8514 34.5483 38.9909 34.5483H39.5978C39.7495 34.5483 39.7859 34.5483 39.7859 34.7305V40.2914C39.7859 40.4492 39.7859 40.4735 39.5978 40.4735Z" fill="white"/>
<path d="M54.5204 40.4735H51.6803C51.5286 40.4735 51.4922 40.4735 51.4922 40.2914V34.7305C51.4922 34.5726 51.5286 34.5483 51.6803 34.5483H54.5204C54.6843 34.5483 54.7328 34.5483 54.7328 34.6455V34.7669L54.569 35.3436C54.5588 35.3888 54.5318 35.4283 54.4934 35.4543C54.4551 35.4802 54.4083 35.4906 54.3627 35.4832H52.6634V36.9099H54.126C54.2898 36.9099 54.3141 36.9099 54.3141 37.092V37.6384C54.3141 37.7963 54.2777 37.8205 54.126 37.8205H52.6634V39.5143H54.5204C54.6722 39.5143 54.6964 39.5143 54.6964 39.6964V40.2671C54.6964 40.425 54.6964 40.4492 54.5204 40.4492" fill="white"/>
<path d="M68.9689 40.6253C68.9203 40.6253 68.8536 40.516 68.7686 40.3521L67.5974 38.0269H67.1786V40.2914C67.1786 40.4492 67.1786 40.4735 67.0027 40.4735H66.1955C66.0559 40.4735 66.0195 40.4735 66.0195 40.2914V34.7305C66.0195 34.5726 66.0559 34.5483 66.1955 34.5483H67.5974C68.2649 34.5483 69.6122 34.5969 69.6122 36.2178C69.6389 36.5547 69.5581 36.8913 69.3815 37.1793C69.2048 37.4673 68.9414 37.6918 68.629 37.8205L69.9156 40.1275L69.9945 40.2914L69.8124 40.4007L69.0842 40.601H68.9689M67.1483 35.4347V37.092H67.3728C67.9433 37.092 68.4227 37.007 68.4227 36.2118C68.4227 35.4165 67.919 35.4347 67.476 35.4347H67.1483Z" fill="white"/>
<path d="M83.2247 40.6253C81.6954 40.6253 80.9004 39.6357 80.9004 37.5413C80.9004 35.4468 81.6954 34.4087 83.2368 34.4087C84.0197 34.4087 84.8511 34.7851 84.8511 34.9308L84.7965 35.0583L84.5234 35.6654L84.4202 35.7504C84.0833 35.532 83.6976 35.4006 83.2975 35.3679C82.4175 35.3679 82.1384 36.1875 82.1384 37.5109C82.1384 38.8344 82.3508 39.7147 83.2975 39.7147C83.5071 39.7147 83.7142 39.6691 83.9044 39.5811V38.2941H83.2611C83.1215 38.2941 83.0851 38.2941 83.0851 38.118V37.5413C83.0851 37.3895 83.1215 37.3592 83.2611 37.3592H84.7783C84.9118 37.3592 84.9542 37.3895 84.9542 37.5413V39.9696C84.9542 40.3339 83.9286 40.6496 83.2247 40.6496" fill="white"/>
<path d="M98.4335 40.4739H97.6445C97.4867 40.4739 97.4503 40.4739 97.4503 40.2918V38.0455L95.8239 34.8947L95.7754 34.7126L95.9514 34.6155L96.8192 34.4819H96.9102L97.0316 34.5973L97.7416 36.0786C97.8809 36.3822 97.9946 36.697 98.0815 37.0196C98.1784 36.6709 98.3064 36.3316 98.4638 36.0057L99.1071 34.658C99.1799 34.4819 99.2042 34.4819 99.2466 34.4819H99.3802L100.114 34.6398L100.266 34.749L100.205 34.8887L98.5973 38.0395V40.2857C98.5973 40.4435 98.5609 40.4678 98.4092 40.4678" fill="white"/>
</svg>
