<svg width="216" height="49" viewBox="0 0 216 49" fill="none" xmlns="http://www.w3.org/2000/svg">
<path d="M63.7352 13.6597C52.9006 13.6597 46.1401 21.5742 46.1401 31.1978C46.1401 40.8873 52.7676 48.7316 63.8062 48.7316C74.8535 48.7316 81.5475 40.8828 81.5475 31.1978C81.5475 21.5786 74.5786 13.664 63.7352 13.6597ZM63.8105 41.0888C57.6662 41.0888 54.5631 36.312 54.5631 31.1978C54.5631 26.1493 57.7372 21.2368 63.8105 21.2368C69.4717 21.2368 73.0625 26.1493 73.0625 31.1978C73.0625 36.3077 69.9549 41.0888 63.8105 41.0888Z" fill="white"/>
<path d="M96.7044 47.9821H88.3523V0.293457H96.7044V47.9821Z" fill="white"/>
<path d="M113.24 47.9821H104.892V0.293457H113.24V47.9821Z" fill="white"/>
<path d="M131.287 4.86442C131.287 11.3415 121.348 11.3415 121.348 4.86442C121.348 -1.62147 131.287 -1.62147 131.287 4.86442Z" fill="white"/>
<path d="M122.102 47.9823H130.525V14.2075H122.102V47.9823Z" fill="white"/>
<path d="M164.74 47.9821V30.3782C164.74 25.264 161.912 21.3725 156.525 21.3725C151.342 21.3725 147.827 25.6716 147.827 30.7858V47.9821H139.475V14.2775H146.993L147.548 18.8526C150.997 15.5045 154.451 13.7998 158.728 13.7998C166.739 13.7998 173.149 19.7378 173.149 30.3081V47.9821H164.74Z" fill="white"/>
<path d="M9.11453 31.9868H0V47.9824H9.11453V31.9868Z" fill="white"/>
<path d="M28.2168 31.0489C37.3492 29.1908 40.377 22.5822 40.377 16.0481C40.377 7.79176 34.3701 0.289172 22.9813 0.219055C15.3253 0.219055 7.66045 0.15332 0 0.15332V11.5474L31.9585 47.9779H42.7885V47.3644L28.2168 31.0489ZM21.9884 23.9013V23.8969L9.11453 9.1196V8.61564H22.9813C28.7134 8.61564 31.2624 12.4327 31.2624 16.2584C31.2624 20.0754 28.7799 23.9013 22.9813 23.9013H21.9884Z" fill="white"/>
<path d="M200.191 30.1722L214.067 14.821V14.3433H203.991L193.728 26.443V34.1295L205.852 47.9821H216V47.3643L200.191 30.1722Z" fill="white"/>
<path d="M180.828 47.9821H189.184V0.293457H180.828V47.9821Z" fill="white"/>
</svg>
