<svg width="140" height="25" viewBox="0 0 140 25" fill="none" xmlns="http://www.w3.org/2000/svg">
<path d="M8.32918 15.2374L8.44919 14.9269L8.17309 14.739L1.36535 10.1182H10.0445L10.1402 9.83204L12.9667 1.39202L15.4743 9.81778L15.5632 10.1182H24.2525L17.4448 14.739L17.188 14.9135L17.2794 15.2106L19.7946 23.3485L12.8752 18.3384L12.6344 18.1646L12.3902 18.3333L5.214 23.3032L8.33002 15.2383L8.32918 15.2374ZM36.9247 15.2374L37.0447 14.9269L36.7695 14.739L29.9609 10.1182H38.6392L38.7357 9.83204L41.5614 1.39202L44.069 9.81778L44.1579 10.1182H52.8472L46.0395 14.739L45.7827 14.9135L45.875 15.2106L48.3893 23.3485L41.4699 18.3384L41.2291 18.1646L40.9857 18.3333L33.8087 23.3032L36.9247 15.2383V15.2374ZM65.5202 15.2374L65.6411 14.9269L65.3641 14.739L58.5572 10.1182H67.2348L67.3313 9.83204L70.1569 1.39202L72.6645 9.81778L72.7535 10.1182H81.4427L74.635 14.739L74.3782 14.9135L74.4705 15.2106L76.9848 23.3485L70.0654 18.3384L69.8246 18.1646L69.5812 18.3333L62.4042 23.3032L65.5202 15.2383V15.2374ZM94.1166 15.2374L94.2366 14.9269L93.9605 14.739L87.1528 10.1182H95.8311L95.9268 9.83204L98.7524 1.39202L101.26 9.81778L101.35 10.1182H110.039L103.231 14.739L102.974 14.9135L103.066 15.2106L105.581 23.3485L98.661 18.3384L98.421 18.1646L98.1767 18.3333L91.0006 23.3032L94.1166 15.2383V15.2374ZM122.712 15.2374L122.832 14.9269L122.556 14.739L115.748 10.1182H124.427L124.522 9.83204L127.348 1.39202L129.856 9.81778L129.945 10.1182H138.635L131.827 14.739L131.569 14.9135L131.662 15.2106L134.177 23.3485L127.257 18.3384L127.016 18.1646L126.772 18.3333L119.596 23.3032L122.712 15.2383V15.2374Z" fill="#ECC80D" stroke="#D8B400" stroke-width="0.833333"/>
</svg>
